<?xml version="1.0" encoding="UTF-8"?>
<svg xmlns="http://www.w3.org/2000/svg" xmlns:xlink="http://www.w3.org/1999/xlink" width="100" height="100" viewBox="0 0 100 100" version="1.1">
<g id="surface1">
<path style=" stroke:none;fill-rule:nonzero;fill:rgb(58.823532%,0%,58.823532%);fill-opacity:1;" d="M 95.578125 45.78125 L 54.21875 4.421875 C 51.835938 2.042969 47.972656 2.042969 45.589844 4.421875 L 37.003906 13.011719 L 47.894531 23.90625 C 50.429688 23.050781 53.332031 23.625 55.347656 25.644531 C 57.378906 27.675781 57.949219 30.601562 57.070312 33.144531 L 67.570312 43.644531 C 70.113281 42.769531 73.042969 43.335938 75.070312 45.367188 C 77.90625 48.203125 77.90625 52.796875 75.070312 55.632812 C 72.234375 58.46875 67.640625 58.46875 64.800781 55.632812 C 62.671875 53.5 62.140625 50.363281 63.222656 47.738281 L 53.429688 37.945312 L 53.429688 63.714844 C 54.121094 64.058594 54.773438 64.511719 55.347656 65.089844 C 58.183594 67.921875 58.183594 72.515625 55.347656 75.355469 C 52.511719 78.191406 47.917969 78.191406 45.082031 75.355469 C 42.25 72.515625 42.25 67.921875 45.082031 65.089844 C 45.785156 64.386719 46.597656 63.859375 47.460938 63.503906 L 47.460938 37.492188 C 46.597656 37.140625 45.785156 36.613281 45.082031 35.910156 C 42.9375 33.761719 42.417969 30.609375 43.519531 27.972656 L 32.78125 17.230469 L 4.421875 45.589844 C 2.039062 47.972656 2.039062 51.835938 4.421875 54.21875 L 45.78125 95.578125 C 48.164062 97.960938 52.027344 97.960938 54.410156 95.578125 L 95.578125 54.410156 C 97.960938 52.027344 97.960938 48.164062 95.578125 45.78125 Z M 95.578125 45.78125 "/>
<text x="50" y="72" text-anchor="middle" font-size="12" fill="#960096">g</text>
</g>
</svg>
