<?xml version="1.0" standalone="no"?>
<!DOCTYPE svg PUBLIC "-//W3C//DTD SVG 20010904//EN"
 "http://www.w3.org/TR/2001/REC-SVG-20010904/DTD/svg10.dtd">
<svg version="1.0" xmlns="http://www.w3.org/2000/svg"
 width="1884.000000pt" height="1920.000000pt" viewBox="0 0 1884.000000 1920.000000"
 preserveAspectRatio="xMidYMid meet">

<g transform="translate(0.000000,1920.000000) scale(0.100000,-0.100000)"
fill="#000000" stroke="none">
<path d="M0 19110 l0 -90 68 0 c67 0 112 -17 112 -42 0 -6 -18 -28 -40 -48
l-40 -37 6 -60 c5 -44 2 -67 -9 -89 -14 -27 -13 -32 10 -79 14 -27 32 -78 39
-113 9 -44 23 -74 44 -98 16 -19 30 -42 31 -52 0 -9 2 -26 4 -36 2 -12 -9 -31
-28 -49 -18 -16 -44 -47 -58 -69 l-27 -40 5 -166 c5 -162 -5 -274 -27 -296 -5
-5 -22 -10 -37 -11 -15 -1 -34 -3 -40 -3 -10 -2 -13 -39 -13 -147 l0 -145 29
0 c68 0 91 -62 91 -246 0 -95 -12 -172 -50 -315 -9 -32 -13 -35 -40 -31 -30 4
-30 4 -30 -41 0 -42 2 -45 22 -39 13 3 26 9 29 14 3 5 14 -16 23 -47 33 -104
16 -322 -26 -333 -25 -6 -23 -17 7 -30 30 -14 39 -47 31 -107 -7 -47 -47 -91
-73 -81 -11 4 -13 -339 -13 -1968 l0 -1973 29 -6 c16 -3 40 -16 54 -29 22 -20
27 -35 35 -118 7 -74 14 -104 34 -135 14 -22 30 -56 37 -76 6 -20 26 -49 44
-65 17 -16 43 -44 57 -63 23 -30 32 -34 115 -47 67 -11 101 -12 132 -4 23 5
60 10 83 10 22 0 57 7 77 15 44 19 76 19 111 1 15 -7 59 -17 97 -20 39 -4 85
-12 102 -17 24 -8 53 -6 110 5 43 8 98 18 123 22 24 3 58 17 75 29 91 69 205
100 292 79 33 -8 100 -13 153 -12 153 2 284 -22 342 -64 14 -10 22 -10 38 0
31 19 46 15 74 -20 23 -30 30 -32 91 -34 73 -3 87 -10 105 -54 8 -19 22 -31
41 -35 16 -4 38 -20 50 -36 23 -33 23 -36 -6 -39 -35 -4 -44 -1 -77 29 -21 18
-67 39 -123 56 -74 23 -97 35 -134 71 -24 24 -47 44 -50 44 -3 0 -20 -13 -37
-28 -18 -15 -41 -33 -52 -41 -24 -17 -36 -52 -34 -98 1 -28 13 -64 69 -218 25
-67 51 -102 121 -157 37 -29 75 -63 85 -75 10 -12 36 -27 57 -33 21 -6 58 -22
82 -35 54 -31 78 -31 124 0 20 14 46 25 56 25 36 0 133 32 151 49 10 10 25 44
33 77 25 92 29 97 77 89 76 -12 107 -26 122 -56 9 -16 27 -36 41 -45 31 -21
40 -37 49 -91 6 -37 3 -45 -19 -68 -14 -14 -30 -25 -36 -25 -6 0 -30 18 -55
41 -50 46 -60 45 -113 -16 -37 -41 -47 -72 -39 -122 8 -45 30 -70 71 -79 17
-3 60 -19 95 -35 35 -16 70 -29 77 -29 7 0 30 -14 50 -32 36 -32 36 -33 31
-93 -14 -135 -51 -193 -128 -202 -27 -3 -55 0 -69 7 -23 13 -23 13 -4 118 8
43 -16 78 -71 102 -102 44 -166 25 -290 -84 -98 -87 -125 -104 -183 -116 -63
-14 -123 0 -141 32 -7 13 -35 40 -61 60 -38 29 -49 44 -52 70 l-3 33 -61 -3
c-44 -3 -71 1 -94 13 -24 12 -45 15 -76 10 -62 -9 -147 -80 -175 -145 -13 -29
-36 -60 -58 -77 -51 -38 -52 -41 -30 -95 10 -27 19 -68 19 -91 0 -48 8 -62 63
-102 36 -27 40 -28 65 -13 15 8 49 21 76 27 27 7 70 23 97 36 66 34 99 32 132
-5 33 -36 55 -38 63 -6 8 35 46 56 100 56 41 0 50 4 90 45 34 35 50 45 76 45
18 0 58 7 88 15 30 8 94 15 141 15 85 0 85 0 116 35 27 30 37 35 76 35 53 0
72 -18 62 -57 -12 -49 -52 -91 -98 -103 -23 -7 -62 -18 -86 -26 -25 -8 -70
-14 -102 -13 -54 2 -61 0 -99 -34 -45 -42 -42 -41 -93 -26 -47 13 -67 6 -106
-34 -30 -30 -34 -31 -105 -28 -63 2 -83 -2 -129 -23 -43 -21 -69 -26 -128 -26
-90 1 -160 15 -176 37 -12 15 -16 15 -52 -5 -24 -13 -78 -28 -138 -37 -54 -8
-123 -24 -153 -35 -30 -11 -63 -20 -74 -20 -19 0 -131 -56 -154 -78 -23 -21
-66 -40 -118 -53 -69 -17 -152 -66 -177 -105 -12 -18 -38 -42 -58 -53 -20 -12
-42 -28 -50 -37 -19 -23 -48 -32 -115 -35 -69 -3 -99 -13 -137 -48 -22 -20
-39 -26 -80 -26 -29 -1 -69 -7 -90 -14 -70 -24 -147 4 -147 52 0 27 3 28 38
27 85 -4 102 0 136 33 19 17 57 40 85 50 39 13 57 28 86 68 46 64 42 90 -18
120 -23 12 -64 42 -90 66 -30 28 -55 43 -65 40 -91 -26 -112 -29 -155 -23 -55
8 -90 37 -85 69 3 18 14 23 79 35 73 13 79 12 123 -8 32 -16 54 -20 74 -15 41
11 99 7 130 -8 18 -9 49 -12 93 -9 48 3 86 -2 145 -18 114 -32 199 -24 326 30
62 27 100 49 107 64 7 12 27 31 44 41 33 19 76 57 151 133 23 23 45 42 50 42
4 0 21 9 37 21 36 25 38 63 8 129 -11 25 -23 66 -26 92 -5 45 -4 48 23 59 16
6 36 15 44 20 8 5 41 22 72 39 31 16 59 38 63 49 3 10 21 39 40 63 19 23 35
47 35 51 0 5 14 38 30 74 17 35 30 75 30 88 0 48 -31 170 -54 211 -42 75 -137
194 -159 199 -12 3 -51 12 -87 20 -36 7 -105 28 -153 45 l-88 31 -77 -15 c-42
-8 -97 -22 -122 -31 -43 -15 -100 -59 -100 -78 0 -5 -18 -39 -40 -76 -39 -65
-40 -70 -40 -160 0 -72 -5 -103 -21 -142 -12 -27 -27 -49 -33 -49 -6 0 -22 -9
-36 -20 -72 -57 -110 -2 -117 170 -5 134 -7 143 -43 183 -16 19 -37 56 -47 83
-22 59 -49 74 -139 82 -71 5 -109 -11 -164 -75 -59 -67 -99 -201 -100 -338 0
-33 -4 -66 -9 -74 -5 -7 -31 -19 -57 -26 -60 -15 -77 -41 -69 -102 5 -35 3
-43 -9 -43 -13 0 -14 -5 -5 -26 13 -35 -13 -78 -42 -71 -19 5 -19 -19 -19
-1313 l0 -1317 73 -5 c39 -3 86 -12 102 -21 17 -9 28 -17 25 -17 -3 -1 -14 -4
-25 -7 -11 -3 -54 -6 -95 -7 l-75 -1 -3 -867 -2 -867 31 -3 c53 -5 72 -41 72
-138 0 -66 -4 -87 -20 -108 -11 -15 -26 -28 -34 -28 -8 -1 -22 -2 -31 -3 -15
-1 -18 -10 -18 -50 0 -44 3 -49 25 -55 16 -4 33 -22 47 -49 23 -44 27 -114 14
-252 -4 -33 -1 -102 6 -153 9 -74 9 -106 -1 -155 -18 -89 -34 -116 -66 -110
l-25 5 0 -76 c0 -74 1 -76 25 -76 19 0 30 -10 46 -42 19 -38 21 -53 16 -138
-8 -125 -17 -150 -57 -150 l-30 0 0 -120 c0 -88 3 -122 13 -124 56 -15 74 -26
94 -55 13 -19 23 -47 23 -63 0 -38 14 -42 86 -23 62 16 97 46 109 93 3 13 14
36 24 51 11 14 22 48 25 75 9 77 27 96 86 96 61 0 86 -27 95 -105 8 -58 17
-71 85 -114 56 -36 84 -42 233 -50 137 -7 146 -13 167 -101 14 -60 8 -70 -75
-125 -27 -19 -66 -50 -85 -70 -27 -27 -55 -42 -127 -65 -133 -43 -178 -39
-230 17 -27 28 -38 29 -88 3 -39 -20 -39 -20 -72 0 -43 25 -79 25 -174 1 -41
-11 -100 -23 -131 -26 l-58 -7 0 -74 0 -74 29 0 c31 0 81 -34 81 -54 0 -7 8
-20 18 -29 14 -13 34 -15 99 -12 87 4 94 1 108 -45 11 -36 35 -60 60 -60 37 0
50 26 50 105 0 81 18 115 61 115 46 0 54 -10 54 -61 l0 -49 63 -31 c70 -34 87
-34 325 -3 64 9 149 19 189 23 58 5 78 11 100 33 38 35 66 48 102 48 19 0 39
10 58 28 42 43 67 53 128 51 49 -2 62 2 108 34 30 21 59 37 66 37 6 0 39 14
73 31 34 17 79 37 100 45 48 17 139 84 163 120 10 16 48 58 84 94 59 58 123
132 159 181 6 10 27 23 46 29 21 6 60 38 98 78 57 61 66 77 97 167 l33 101
-27 63 c-16 38 -29 93 -33 140 -7 73 -8 76 -39 90 -42 18 -57 57 -49 123 4 29
2 69 -4 88 -25 86 45 252 150 355 36 36 76 72 89 82 31 21 143 54 203 58 25 2
61 11 80 21 60 31 383 59 473 40 39 -8 42 -7 100 51 34 32 87 87 120 123 33
36 72 72 87 80 15 8 40 27 56 41 16 14 49 38 75 53 25 15 53 39 63 54 16 26
88 105 149 164 17 16 44 37 60 45 17 9 51 37 76 62 128 128 133 131 186 131
90 0 120 -57 60 -113 -19 -18 -67 -64 -108 -103 -41 -38 -90 -83 -109 -98 -19
-15 -77 -69 -129 -119 -78 -77 -100 -105 -132 -174 -21 -45 -39 -88 -39 -96 0
-8 11 -27 25 -43 22 -26 31 -29 80 -28 39 0 60 5 75 19 18 16 38 20 108 21 48
0 119 5 157 10 84 11 261 11 327 0 60 -11 91 -3 107 28 17 31 51 46 107 46
121 0 109 -65 -16 -91 -34 -7 -66 -21 -85 -39 -16 -15 -39 -30 -50 -34 -33
-12 -340 -29 -487 -27 -124 2 -137 0 -150 -17 -21 -30 -56 -44 -90 -36 -94 20
-265 -12 -353 -66 -24 -15 -49 -21 -78 -20 -71 4 -77 2 -135 -54 -31 -29 -69
-60 -83 -67 -31 -16 -97 -97 -128 -155 -11 -21 -39 -59 -61 -84 -23 -25 -51
-62 -61 -83 -11 -21 -27 -41 -35 -44 -19 -7 -39 -48 -48 -97 -8 -44 -45 -83
-154 -164 -52 -38 -72 -63 -112 -133 -47 -84 -80 -153 -80 -170 0 -4 16 -25
35 -46 40 -44 40 -40 19 -102 -8 -27 -14 -66 -12 -87 3 -34 9 -43 53 -72 46
-31 54 -33 100 -26 85 14 210 11 229 -5 21 -17 48 -80 40 -92 -3 -5 -16 -9
-30 -9 -13 0 -68 -9 -120 -21 -70 -15 -110 -19 -148 -13 -121 17 -159 1 -294
-122 -56 -52 -107 -94 -113 -94 -6 0 -33 -11 -60 -24 -26 -14 -75 -32 -109
-42 -33 -9 -63 -21 -66 -25 -3 -5 -29 -9 -58 -9 -41 0 -75 -10 -144 -40 -49
-22 -99 -40 -110 -40 -23 0 -152 -38 -167 -50 -5 -4 -23 -10 -40 -14 -16 -4
-41 -15 -55 -24 -14 -9 -55 -33 -91 -52 -144 -76 -173 -98 -199 -146 -17 -31
-42 -57 -77 -80 -38 -24 -66 -54 -97 -102 -24 -38 -51 -72 -59 -75 -9 -3 -34
-33 -57 -66 -22 -34 -45 -61 -50 -61 -5 0 -17 -14 -26 -31 -8 -17 -33 -50 -53
-73 -21 -22 -43 -50 -49 -61 -10 -21 -30 -33 -88 -55 -18 -6 -42 -29 -58 -55
-16 -24 -37 -52 -48 -62 -11 -10 -36 -42 -55 -71 -19 -30 -45 -65 -58 -79 -13
-14 -36 -51 -51 -82 -25 -50 -127 -165 -179 -202 -12 -8 -34 -32 -50 -54 -16
-22 -49 -61 -72 -87 -24 -26 -43 -52 -43 -58 0 -6 -18 -27 -40 -48 -22 -20
-48 -53 -58 -72 -13 -23 -30 -38 -50 -45 l-32 -9 0 -73 c0 -64 2 -73 18 -73
10 0 23 -5 30 -12 16 -16 -3 -48 -28 -48 -19 0 -20 -7 -20 -125 l0 -125 25 0
c28 0 55 -42 55 -85 0 -26 -50 -85 -71 -85 -5 0 -9 -44 -9 -99 l0 -98 28 -6
c43 -9 56 -46 59 -167 5 -203 2 -360 -7 -386 -14 -35 -12 -88 5 -159 18 -72
19 -185 4 -272 -6 -37 -8 -92 -4 -128 l7 -65 184 0 184 0 0 26 c0 50 28 85 83
103 21 7 44 24 53 41 9 15 31 35 48 44 62 33 101 62 146 108 25 25 59 52 76
60 55 23 137 93 174 148 43 64 83 99 132 116 28 9 56 27 67 43 11 15 31 33 46
41 15 8 34 31 42 52 10 25 38 55 91 96 43 33 90 74 106 90 16 17 43 34 60 37
59 12 67 17 84 53 19 41 73 82 109 82 39 0 62 18 79 60 13 31 26 43 71 65 31
14 74 42 96 61 23 19 46 34 52 34 12 0 176 101 234 144 18 14 48 30 67 36 19
7 34 15 34 20 0 4 25 26 55 49 30 23 68 54 84 70 17 17 50 33 79 40 27 7 62
24 79 39 94 85 134 112 203 135 40 15 85 37 99 50 14 14 36 28 48 31 12 4 44
25 70 47 26 21 53 39 61 39 7 0 32 18 55 40 51 47 83 60 143 60 35 0 51 6 81
33 21 18 49 40 63 49 48 30 107 119 115 173 8 57 20 84 45 102 10 7 25 30 33
52 9 22 29 54 45 73 16 18 38 51 50 73 11 22 36 57 56 77 20 20 36 44 36 52 0
22 58 85 109 117 24 16 54 44 67 63 16 23 49 47 104 75 45 22 96 52 115 66 27
21 40 25 68 20 27 -5 42 -2 65 15 36 27 89 39 168 40 54 0 66 4 104 34 34 27
57 36 104 41 52 6 64 12 92 44 18 20 60 56 93 81 33 25 67 57 75 72 9 14 32
45 51 68 19 23 35 47 35 53 0 33 24 91 50 121 20 22 35 56 45 102 10 43 27 83
45 105 36 46 49 93 51 200 2 80 0 90 -26 131 -25 40 -36 48 -86 62 -32 9 -73
29 -91 45 -18 15 -55 38 -82 51 -49 22 -133 76 -213 136 -38 29 -148 74 -180
74 -7 0 -32 -17 -56 -39 -51 -47 -70 -57 -123 -65 -28 -5 -51 -18 -72 -41 -18
-18 -52 -40 -78 -49 -25 -8 -61 -29 -80 -45 -41 -36 -103 -55 -154 -46 -51 9
-139 -18 -187 -57 -38 -30 -39 -30 -132 -25 -67 3 -104 0 -127 -9 -25 -11 -86
-13 -248 -12 -203 1 -215 2 -220 21 -2 10 -1 29 4 41 22 59 74 67 345 55 120
-6 234 -8 253 -4 18 3 50 21 71 40 51 46 85 58 148 50 38 -5 60 -2 84 10 17 9
54 24 82 32 27 8 66 25 86 38 20 12 52 26 70 30 18 4 48 15 65 26 17 10 56 23
86 30 53 11 80 27 80 48 0 16 35 31 70 31 38 0 126 43 140 70 6 11 31 31 55
46 25 14 50 35 55 45 6 10 37 37 69 59 61 41 121 105 121 128 0 7 15 21 33 32
35 21 116 109 137 150 7 14 25 39 40 55 16 17 35 57 45 90 9 33 35 89 57 125
23 36 47 75 55 88 16 26 58 29 91 6 42 -29 26 -140 -27 -188 -27 -24 -27 -45
1 -83 13 -16 32 -43 43 -59 34 -48 76 -84 99 -84 13 0 35 15 53 34 30 34 47
40 148 48 21 2 34 11 43 31 15 31 56 37 67 10 4 -13 -4 -28 -29 -51 -20 -18
-36 -37 -36 -43 0 -5 -20 -29 -43 -52 -38 -37 -45 -51 -57 -110 -13 -73 -26
-84 -85 -73 -17 3 -68 9 -116 12 -93 7 -123 -2 -168 -50 -26 -28 -58 -40 -140
-56 -85 -16 -110 -47 -136 -171 -19 -94 -19 -123 1 -140 9 -8 27 -30 40 -50
22 -35 26 -37 96 -44 163 -16 190 -10 222 53 15 28 44 62 75 86 28 21 61 53
73 70 12 17 49 56 82 87 l61 56 0 62 c0 71 14 87 69 77 50 -9 161 44 188 90
22 37 78 79 120 89 25 6 40 -3 157 -103 25 -20 59 -46 76 -57 46 -30 115 -109
115 -133 0 -15 -12 -28 -38 -41 -49 -25 -99 -76 -119 -121 -9 -20 -16 -66 -17
-107 -1 -64 2 -74 25 -100 15 -15 36 -46 47 -68 22 -44 86 -101 148 -133 62
-32 65 -38 60 -146 -6 -138 -30 -168 -135 -168 -36 0 -81 10 -124 26 -56 22
-72 24 -90 15 -107 -57 -144 -158 -88 -239 10 -14 33 -56 52 -93 20 -41 45
-75 60 -84 47 -28 51 -50 37 -212 -10 -126 -15 -148 -33 -163 -11 -10 -47 -43
-80 -73 -33 -30 -63 -55 -66 -55 -4 0 -20 -11 -36 -24 -46 -38 -97 -50 -149
-36 -39 11 -50 10 -84 -5 -30 -14 -53 -16 -102 -11 -258 26 -363 17 -424 -36
-44 -39 -134 -174 -134 -201 0 -12 4 -37 9 -55 7 -21 6 -43 -1 -63 -8 -23 -7
-45 2 -85 13 -51 12 -55 -13 -91 -43 -63 -79 -97 -146 -141 -79 -51 -110 -53
-195 -12 -75 36 -128 82 -154 135 -47 91 -241 248 -324 262 -53 8 -109 -13
-163 -62 -27 -24 -54 -45 -58 -45 -25 -1 -132 -122 -164 -184 -19 -38 -44 -82
-55 -96 -26 -36 -71 -234 -63 -282 9 -51 39 -86 99 -114 61 -29 109 -30 144
-6 43 30 154 82 174 82 10 0 35 -8 56 -19 20 -10 63 -22 96 -26 76 -9 106 -36
106 -97 2 -120 7 -217 15 -251 5 -25 3 -64 -5 -107 -10 -55 -11 -75 0 -99 11
-27 178 -191 195 -191 4 0 20 -9 36 -21 21 -14 31 -32 35 -60 4 -22 18 -57 31
-76 40 -59 43 -76 30 -166 -14 -97 -31 -127 -83 -152 -21 -10 -62 -38 -92 -62
-71 -58 -87 -63 -196 -65 l-93 -1 -91 51 c-50 29 -94 52 -98 52 -16 0 -88 67
-111 104 -34 55 -73 96 -92 96 -31 1 -189 -85 -207 -113 -11 -15 -34 -34 -52
-43 -18 -8 -40 -26 -49 -40 -9 -14 -37 -36 -64 -49 -26 -14 -86 -63 -133 -109
-48 -47 -96 -88 -106 -91 -11 -4 -27 -20 -36 -36 -8 -16 -37 -54 -64 -85 -28
-30 -50 -59 -50 -65 0 -11 -23 -39 -163 -196 -42 -48 -67 -85 -67 -100 l0 -23
1407 2 c1399 3 1408 3 1411 23 7 34 43 64 98 80 35 10 55 22 59 35 4 11 23 32
43 47 20 15 52 40 69 55 18 15 52 32 75 39 68 18 116 46 183 109 46 43 77 63
116 74 29 9 58 16 64 16 6 0 27 12 46 26 56 42 177 94 291 125 59 15 121 35
138 44 17 9 66 21 110 27 85 13 98 10 153 -34 25 -20 31 -21 71 -10 30 8 54 8
77 2 19 -6 77 -15 129 -21 84 -9 150 -31 150 -50 0 -16 64 -29 178 -35 l122
-7 33 36 c19 19 52 44 73 55 58 30 119 102 133 158 18 71 88 164 123 164 38 0
51 -43 53 -183 2 -130 2 -133 -33 -220 -39 -98 -67 -127 -142 -147 -25 -7 -61
-20 -80 -30 -47 -23 -125 -31 -180 -19 -25 6 -71 12 -102 14 -32 2 -74 13 -95
23 -21 11 -74 27 -118 37 -44 9 -109 27 -145 40 -36 14 -78 24 -95 24 -16 -1
-59 6 -95 15 -117 28 -249 14 -339 -37 -48 -27 -57 -29 -86 -19 -58 22 -81 12
-171 -69 -33 -29 -52 -38 -95 -44 -35 -4 -69 -17 -95 -35 -22 -16 -60 -37 -85
-46 -24 -10 -61 -32 -83 -50 -24 -21 -59 -38 -94 -46 -41 -9 -65 -21 -91 -48
-20 -20 -54 -43 -76 -50 -50 -16 -65 -28 -65 -51 0 -19 62 -19 2555 -19 2456
0 2555 1 2555 18 0 10 20 78 44 151 25 74 48 159 52 190 3 31 20 94 36 141 24
67 31 104 33 177 2 71 7 99 23 126 18 32 20 48 16 188 -3 153 -15 309 -34 444
-5 39 -9 75 -10 81 0 6 -12 29 -26 50 -20 28 -30 64 -40 129 -8 55 -25 116
-44 157 -17 36 -35 94 -41 127 -14 87 -25 110 -75 162 -72 73 -78 151 -15 184
50 25 75 19 129 -34 27 -26 57 -62 67 -79 10 -17 30 -36 44 -44 41 -21 50 -39
51 -98 0 -47 5 -61 32 -94 27 -33 33 -51 40 -110 5 -54 17 -90 48 -151 41 -80
41 -82 30 -135 -6 -30 -13 -66 -16 -80 -4 -16 1 -32 13 -45 46 -49 51 -64 40
-107 -7 -29 -7 -87 1 -197 8 -112 9 -176 1 -226 -6 -41 -8 -124 -4 -202 5
-114 4 -137 -11 -165 -12 -23 -17 -54 -16 -102 1 -67 -7 -97 -34 -124 -15 -15
-31 -69 -45 -150 -5 -36 -20 -72 -39 -98 -16 -23 -30 -52 -30 -63 0 -21 3 -21
245 -21 l245 0 0 23 c0 13 4 27 9 32 5 6 16 44 26 85 17 77 43 127 108 208 20
26 42 63 47 83 5 19 25 53 43 75 19 21 41 53 50 69 8 17 56 72 106 123 50 51
91 97 91 102 0 5 13 24 28 42 18 21 33 53 40 88 9 49 20 64 86 135 51 54 81
96 93 129 11 28 32 60 51 76 28 23 35 37 41 84 6 46 15 64 43 94 23 24 38 51
42 77 4 22 20 69 36 105 34 77 43 164 25 235 -12 45 -11 55 10 110 13 33 26
76 29 95 3 20 22 60 41 90 19 30 35 61 35 70 0 21 37 79 63 101 21 17 22 25
24 226 2 285 2 272 0 513 -4 308 -15 459 -38 491 -19 27 -51 161 -75 318 -8
52 -18 99 -23 105 -5 6 -12 22 -16 36 -8 26 -17 45 -109 225 -33 64 -56 122
-56 141 0 17 -7 51 -16 75 -8 24 -18 87 -21 141 -6 94 -5 97 20 122 21 21 36
26 74 26 55 0 60 -3 92 -51 13 -19 37 -43 53 -52 41 -24 58 -72 58 -169 0 -65
4 -91 20 -118 11 -19 32 -60 47 -90 14 -30 35 -66 45 -80 16 -21 19 -34 13
-78 -6 -47 -4 -58 19 -93 32 -48 49 -127 38 -177 -9 -40 1 -79 30 -122 10 -14
30 -68 46 -120 48 -156 48 -154 12 -210 -42 -65 -49 -118 -23 -163 11 -18 23
-60 27 -93 4 -32 16 -83 27 -112 22 -61 26 -185 6 -218 -6 -12 -29 -54 -51
-95 l-38 -73 21 -61 c29 -83 28 -165 -4 -233 -30 -65 -30 -73 -5 -114 26 -44
25 -51 -11 -93 -28 -32 -32 -44 -36 -108 -7 -123 -11 -138 -54 -176 l-39 -36
-3 -98 c-3 -84 -8 -104 -34 -155 -16 -31 -38 -80 -47 -108 -9 -28 -37 -84 -61
-125 -25 -41 -45 -78 -45 -82 0 -4 -16 -33 -36 -63 -19 -31 -44 -79 -54 -107
-11 -29 -43 -97 -72 -152 -47 -88 -58 -103 -97 -122 -58 -30 -74 -45 -90 -89
-22 -60 -96 -166 -143 -205 -34 -28 -46 -47 -56 -87 -8 -28 -27 -71 -43 -97
-16 -25 -36 -62 -45 -83 -8 -20 -26 -48 -38 -62 -34 -37 -45 -61 -52 -124 l-7
-56 1261 0 1260 0 -3 148 c-2 98 2 168 11 209 9 43 11 71 4 88 -9 24 1 280 12
290 2 3 15 6 29 7 23 3 25 -1 41 -97 17 -101 16 -135 -6 -200 -8 -23 -10 -52
-5 -83 4 -26 8 -118 8 -204 l1 -158 1945 0 1945 0 0 77 c0 113 41 183 105 183
12 0 15 23 15 134 0 130 -1 134 -22 140 -13 4 -48 40 -78 82 -44 60 -73 87
-140 131 -47 31 -104 73 -128 93 -44 39 -103 60 -169 60 -21 0 -59 6 -84 14
-32 10 -94 13 -220 12 -184 -3 -170 -5 -395 59 -38 11 -66 30 -116 77 -60 58
-84 89 -146 187 -21 33 -23 45 -19 136 3 68 12 119 26 160 12 33 29 92 37 130
14 64 13 74 -2 115 -11 27 -45 74 -86 117 -37 39 -68 76 -68 82 0 5 -23 36
-50 67 -28 31 -50 60 -50 64 0 4 -13 13 -30 20 -34 14 -55 42 -65 90 -4 20
-23 50 -44 71 -20 20 -42 53 -49 75 -6 22 -23 55 -37 74 -14 19 -35 67 -47
105 -12 39 -34 89 -51 112 -20 29 -31 58 -35 92 -3 39 -11 55 -37 80 -18 17
-36 43 -39 58 -4 16 -19 52 -32 81 -14 30 -23 56 -20 59 3 3 -3 22 -14 42 -10
21 -26 66 -35 102 -9 35 -23 71 -32 81 -23 25 -43 104 -50 196 -6 77 -9 87
-35 110 -16 15 -38 41 -49 59 -22 35 -68 54 -113 46 -20 -4 -33 -18 -51 -54
-38 -73 -91 -76 -115 -5 -15 47 -35 61 -107 80 -107 27 -195 81 -235 144 -25
41 -20 89 15 135 13 18 36 53 50 78 19 32 41 53 73 70 49 25 78 58 112 124 11
22 32 51 46 64 14 14 31 43 37 65 17 68 30 94 55 111 34 22 40 39 58 161 l17
111 -31 79 c-17 43 -43 103 -57 132 -14 29 -32 79 -39 110 -8 36 -21 62 -34
72 -90 63 -117 105 -134 211 -4 20 -25 65 -47 100 -23 34 -45 73 -49 85 -14
36 -98 141 -158 197 -31 29 -81 77 -112 107 -49 49 -88 80 -223 177 -21 16
-72 63 -113 105 -45 47 -95 88 -127 104 -29 14 -65 39 -82 54 -16 16 -61 45
-100 65 -79 42 -105 67 -105 101 0 21 9 43 53 141 8 17 19 23 42 23 35 0 55
-18 74 -67 18 -44 34 -55 130 -94 59 -24 97 -47 128 -78 l45 -44 64 6 c35 2
71 10 79 17 37 31 2 127 -62 171 -24 17 -55 48 -68 69 -14 22 -37 47 -52 57
-16 9 -47 34 -70 54 -22 21 -60 47 -82 59 -54 27 -68 57 -52 110 14 47 71 91
122 93 28 2 35 -4 58 -42 17 -28 41 -52 67 -65 49 -25 171 -121 199 -156 10
-14 62 -68 115 -121 128 -130 142 -147 163 -195 10 -22 32 -49 48 -58 30 -18
45 -45 56 -101 4 -16 21 -47 39 -69 18 -21 43 -59 55 -85 12 -25 32 -56 44
-69 13 -13 26 -41 29 -66 4 -24 20 -64 37 -89 37 -56 46 -88 55 -185 8 -86 39
-146 115 -221 56 -55 63 -69 79 -146 7 -33 21 -75 31 -95 11 -19 19 -41 19
-48 0 -16 37 -91 55 -112 7 -8 21 -35 31 -60 10 -25 27 -58 39 -75 31 -43 35
-58 19 -86 -19 -34 -17 -76 6 -141 11 -31 23 -83 26 -115 7 -60 39 -119 94
-173 14 -14 33 -37 43 -52 28 -44 59 -58 152 -69 48 -5 99 -15 113 -23 39 -19
92 -27 212 -32 58 -2 138 -9 179 -15 98 -14 176 -4 207 26 38 38 33 103 -11
170 -20 29 -42 56 -49 58 -8 3 -21 31 -30 61 -11 38 -25 61 -43 73 -15 10 -39
45 -54 79 -16 34 -35 64 -44 68 -9 3 -28 34 -44 69 -16 35 -40 70 -54 80 -35
23 -57 92 -35 113 11 12 23 13 49 7 28 -8 36 -16 45 -48 8 -31 19 -44 50 -60
21 -11 40 -27 41 -35 10 -79 15 -89 48 -109 25 -14 37 -31 45 -60 6 -23 24
-56 39 -74 16 -17 36 -49 44 -69 9 -20 27 -47 42 -60 32 -27 56 -82 54 -118
-3 -43 1 -60 14 -60 23 0 58 -46 73 -96 8 -26 21 -58 30 -72 19 -28 94 -62
139 -62 20 0 45 -9 62 -23 15 -13 42 -29 58 -36 17 -6 50 -29 74 -51 23 -21
59 -44 79 -51 54 -17 89 -45 125 -98 18 -26 64 -75 102 -108 39 -33 84 -75
100 -93 17 -17 47 -41 68 -51 42 -22 57 -51 57 -108 0 -31 8 -46 39 -79 48
-50 58 -93 43 -182 -9 -53 -8 -79 4 -135 19 -92 11 -134 -38 -198 -38 -50 -39
-55 -34 -108 3 -30 1 -72 -5 -92 -11 -41 -3 -64 40 -109 14 -15 35 -51 46 -80
17 -44 26 -54 48 -56 l27 -3 0 1805 c0 1646 -1 1806 -16 1806 -31 0 -122 64
-146 102 -12 21 -60 65 -105 98 -45 33 -91 76 -104 96 -12 20 -38 48 -58 63
-38 28 -151 132 -205 189 -17 18 -63 65 -102 105 -39 40 -83 89 -97 109 -15
20 -59 59 -98 87 -97 68 -151 121 -200 194 -23 34 -56 75 -73 90 -17 16 -54
50 -82 75 -87 81 -108 98 -149 124 -49 31 -64 49 -99 113 -15 28 -45 64 -68
80 -22 17 -57 53 -78 80 -21 28 -52 63 -69 79 -17 17 -31 35 -31 41 0 18 -67
92 -105 115 -19 12 -43 35 -52 51 -10 16 -25 31 -33 34 -18 6 -32 18 -98 88
-23 25 -59 53 -79 62 -19 9 -61 40 -92 69 -95 85 -150 128 -225 178 -39 26
-82 55 -96 66 -14 10 -52 33 -86 51 -41 22 -72 47 -95 79 -53 73 -57 83 -60
152 l-4 65 48 3 c79 5 154 -15 185 -50 15 -17 47 -40 72 -53 25 -13 56 -35 69
-49 13 -14 39 -30 57 -36 18 -6 47 -28 63 -48 21 -27 42 -41 75 -50 38 -10 52
-21 79 -59 49 -72 94 -119 126 -132 26 -11 126 -117 194 -205 15 -20 45 -45
65 -55 20 -11 57 -38 82 -60 25 -23 48 -41 51 -41 3 0 15 -17 26 -37 12 -21
36 -51 53 -68 18 -16 47 -61 65 -100 29 -60 42 -75 91 -107 32 -21 66 -52 78
-73 12 -21 39 -47 61 -59 80 -43 110 -65 129 -98 11 -18 30 -46 43 -61 13 -16
23 -38 23 -49 0 -11 24 -43 53 -71 28 -29 60 -67 69 -84 9 -18 34 -41 58 -53
24 -12 55 -41 73 -67 18 -26 50 -68 72 -94 22 -26 49 -62 60 -80 16 -27 29
-35 65 -41 34 -6 53 -16 79 -45 18 -21 55 -61 82 -90 27 -28 49 -56 49 -61 0
-5 19 -27 41 -48 23 -22 58 -54 78 -73 20 -19 50 -40 67 -47 17 -7 46 -26 64
-41 35 -29 123 -73 146 -73 12 0 14 259 14 1770 0 1728 0 1770 -19 1770 -10 0
-41 15 -68 34 -27 19 -79 48 -114 66 -35 18 -79 43 -97 57 -50 37 -86 45 -223
46 -75 1 -132 7 -140 13 -8 6 -43 12 -79 13 -97 2 -179 20 -226 47 -32 19 -55
24 -107 24 -56 0 -70 4 -96 26 -35 29 -39 54 -13 77 25 23 107 22 197 -2 51
-14 77 -16 97 -9 36 13 51 40 35 61 -28 36 -108 86 -163 102 -32 9 -71 23 -85
31 -15 7 -64 23 -110 35 -46 12 -108 34 -138 50 -30 16 -63 29 -75 29 -12 0
-50 14 -86 31 -71 34 -167 69 -187 69 -7 0 -42 14 -78 30 -36 17 -69 30 -74
30 -4 0 -27 13 -52 29 -24 16 -74 36 -112 45 -37 10 -86 24 -108 32 -23 7 -69
14 -103 14 -112 1 -116 11 -122 313 -4 191 -2 246 8 260 18 25 72 35 154 30
89 -5 146 -20 214 -56 51 -27 61 -29 132 -24 68 4 81 9 118 39 l42 33 147 1
c189 1 227 11 281 75 45 53 63 90 85 175 13 52 13 62 -9 147 -13 51 -35 116
-50 145 -15 29 -36 90 -47 135 l-20 81 21 16 c12 9 40 21 63 28 23 6 59 27 80
47 21 19 56 44 77 55 21 11 47 33 57 50 9 16 25 33 35 36 10 3 35 23 55 44 27
30 46 41 80 46 26 4 54 16 67 29 30 30 51 40 113 55 38 9 63 23 92 51 32 33
45 39 79 39 60 0 92 -15 92 -43 0 -31 -26 -54 -81 -70 -24 -8 -57 -25 -72 -39
-16 -15 -51 -32 -80 -39 -60 -14 -181 -86 -242 -144 -24 -22 -54 -49 -68 -61
-31 -25 -45 -86 -28 -117 7 -12 33 -37 58 -56 39 -29 60 -36 127 -44 45 -6 94
-7 109 -3 26 6 137 106 137 123 0 5 15 17 32 28 18 10 70 56 116 102 46 46
100 92 121 102 21 11 45 30 53 43 9 13 37 44 63 70 37 37 56 48 91 54 l44 6 0
599 c0 576 -1 599 -18 599 -11 0 -27 9 -36 19 -10 10 -38 24 -64 31 -64 15
-121 55 -138 95 -24 57 3 97 89 135 39 17 58 20 107 14 l60 -7 0 2557 0 2556
-9420 0 -9420 0 0 -90z m4861 -99 c16 -16 29 -39 29 -50 0 -41 24 -73 68 -92
33 -14 47 -28 58 -56 9 -21 27 -50 40 -64 17 -17 30 -52 43 -113 15 -69 26
-96 49 -120 16 -17 35 -42 42 -56 7 -14 29 -43 48 -65 19 -22 42 -60 51 -85
13 -35 28 -52 72 -82 31 -20 76 -60 100 -89 29 -35 61 -60 96 -75 36 -16 60
-36 79 -63 21 -32 36 -43 79 -56 34 -10 58 -24 69 -40 9 -14 34 -36 56 -50 22
-14 57 -48 76 -76 20 -27 54 -59 75 -69 21 -11 50 -36 66 -56 15 -20 44 -47
64 -59 29 -19 39 -33 48 -72 15 -62 31 -103 41 -103 12 0 40 -77 40 -110 0
-19 -7 -33 -19 -40 -17 -9 -30 -1 -88 50 -37 33 -71 60 -75 60 -4 0 -15 15
-24 33 -21 40 -31 47 -70 47 -39 0 -45 7 -81 100 -17 44 -44 90 -64 110 -19
20 -42 50 -51 67 -20 38 -71 52 -118 33 -35 -15 -100 -98 -100 -129 0 -11 13
-30 30 -42 16 -12 36 -39 44 -59 8 -20 30 -48 49 -63 28 -21 36 -36 42 -72 4
-32 17 -58 39 -83 18 -20 42 -62 54 -92 11 -31 30 -75 42 -98 41 -78 4 -129
-53 -74 -18 16 -45 37 -62 45 -16 9 -48 32 -69 51 -22 20 -53 45 -70 57 -17
12 -47 42 -66 66 -49 62 -110 123 -123 123 -20 0 -57 43 -57 66 0 15 12 29 36
44 l37 21 -6 72 c-5 57 -15 87 -48 152 -48 92 -69 118 -111 136 -25 10 -29 17
-28 48 3 53 3 53 -30 91 -16 19 -30 38 -30 42 0 4 -19 28 -41 55 -23 26 -48
62 -55 79 -7 17 -28 44 -46 59 -56 47 -125 141 -143 195 -12 35 -28 60 -55 81
-51 41 -93 102 -119 174 -12 33 -31 69 -40 80 -10 11 -31 40 -47 65 -15 25
-41 59 -57 77 -36 39 -31 59 20 72 21 5 54 14 73 19 19 6 63 10 98 11 58 1 66
-2 93 -28z m-659 -32 c7 -16 19 -29 26 -29 23 0 62 -52 62 -82 0 -28 -2 -29
-37 -26 -33 3 -38 7 -50 44 -10 30 -22 45 -43 54 -43 18 -51 64 -12 73 27 6
40 -3 54 -34z m7847 15 c6 -14 14 -65 18 -113 7 -103 -4 -147 -50 -193 -32
-31 -32 -31 -34 -149 -2 -110 -5 -124 -35 -191 -24 -54 -32 -86 -31 -123 1
-27 -9 -93 -23 -145 -13 -52 -24 -114 -24 -138 0 -49 -12 -78 -46 -108 -12
-11 -28 -41 -34 -66 -7 -26 -23 -57 -36 -69 -24 -22 -24 -22 -39 -3 -10 13
-14 45 -15 105 0 90 11 141 40 174 27 32 32 53 41 170 9 131 21 188 41 209 14
13 38 133 38 189 0 12 11 56 23 97 18 58 22 83 15 109 -8 28 -5 45 16 91 14
32 29 73 32 91 12 61 32 89 63 89 20 0 31 -7 40 -26z m-3947 -27 c13 -13 40
-35 60 -50 27 -20 41 -41 51 -74 8 -26 20 -50 28 -54 8 -4 30 -14 50 -22 25
-11 43 -28 55 -54 l19 -38 70 1 c50 1 92 9 147 29 83 29 71 29 282 5 54 -6
105 -9 112 -6 26 10 64 102 59 145 -5 57 19 86 74 86 47 0 53 -7 77 -80 23
-75 46 -125 56 -125 5 0 31 -22 56 -49 26 -27 68 -61 94 -75 61 -35 71 -49 78
-104 5 -44 6 -46 75 -81 54 -29 74 -45 87 -73 12 -25 27 -40 51 -47 19 -6 43
-23 55 -36 12 -13 59 -43 104 -66 46 -23 85 -45 86 -50 2 -5 10 -9 18 -9 21 0
47 -46 39 -70 -10 -31 -43 -24 -79 15 -30 33 -36 35 -94 35 l-62 0 -67 69
c-108 109 -165 134 -211 91 -12 -12 -22 -25 -22 -30 0 -13 -30 -40 -45 -40 -7
0 -30 27 -51 61 -22 37 -56 75 -84 95 -26 19 -53 47 -59 62 -6 15 -31 40 -56
55 -25 16 -52 44 -62 65 -10 20 -23 38 -30 40 -6 2 -44 -27 -82 -64 -55 -52
-80 -87 -111 -150 -22 -45 -51 -89 -65 -98 -17 -11 -27 -29 -31 -58 -8 -47
-34 -78 -66 -78 -29 0 -103 80 -139 152 -16 31 -34 60 -40 64 -6 3 -26 39 -44
78 -18 39 -44 82 -57 96 -59 59 -128 109 -168 121 -30 9 -48 22 -59 42 -9 16
-25 39 -36 51 -11 11 -31 36 -44 54 -12 18 -39 41 -60 51 -56 29 -80 99 -43
127 26 20 59 17 84 -9z m8968 -15 c37 -20 59 -55 70 -114 6 -29 19 -61 29 -71
16 -16 24 -17 84 -7 55 10 71 17 90 42 30 38 117 81 134 66 31 -26 -2 -108
-43 -108 -29 0 -66 -26 -80 -55 -10 -22 -32 -40 -69 -59 -66 -32 -179 -147
-239 -244 -15 -24 -32 -42 -39 -40 -7 3 -19 20 -27 39 -52 120 -75 154 -119
176 -59 30 -78 49 -101 101 -22 50 -27 152 -10 214 17 59 54 73 198 73 60 0
106 -5 122 -13z m-6498 -21 c27 -24 33 -38 39 -87 4 -33 13 -76 21 -97 13 -33
13 -48 2 -100 -7 -33 -10 -70 -8 -81 2 -12 0 -43 -5 -71 -5 -27 -6 -70 -2 -95
8 -52 -1 -105 -30 -166 -11 -24 -24 -65 -29 -92 -22 -120 -67 -184 -115 -166
-15 6 -16 25 -11 193 10 364 7 637 -9 675 -20 48 -19 66 7 93 32 35 98 32 140
-6z m-10194 -24 c9 -8 40 -18 67 -22 62 -9 88 -25 105 -64 9 -22 24 -35 59
-47 58 -22 80 -40 98 -82 8 -19 34 -47 61 -65 26 -18 71 -56 99 -84 29 -29 60
-53 69 -53 9 0 33 -17 52 -37 l35 -38 91 -2 c122 -3 132 -7 156 -52 16 -32 29
-42 68 -55 27 -9 59 -27 72 -40 12 -14 42 -37 66 -52 44 -28 44 -29 44 -84 0
-54 -2 -58 -39 -88 -33 -27 -41 -41 -51 -89 -7 -32 -18 -80 -24 -106 -12 -46
-10 -55 22 -154 28 -85 43 -114 74 -145 45 -45 70 -47 119 -10 95 72 126 107
144 162 10 30 31 79 46 109 16 30 29 62 29 71 0 10 -16 37 -35 60 -19 23 -35
50 -35 60 0 9 -3 31 -6 47 -4 21 -1 35 11 46 27 28 65 21 107 -20 l38 -37 97
2 c53 1 112 -3 130 -9 25 -8 55 -7 125 5 126 22 176 20 267 -10 81 -27 95 -37
186 -139 28 -31 69 -76 93 -99 41 -42 43 -49 57 -136 12 -82 17 -96 47 -127
30 -31 33 -40 34 -101 1 -37 6 -85 12 -107 6 -22 14 -61 17 -87 4 -31 24 -75
60 -136 40 -65 55 -100 55 -127 0 -38 32 -78 74 -91 11 -4 39 -23 62 -43 22
-20 68 -60 101 -89 42 -38 64 -65 72 -93 7 -21 15 -39 19 -39 4 0 26 -18 50
-40 23 -22 45 -41 50 -41 4 -1 28 -2 53 -3 37 -1 54 -8 83 -34 42 -36 45 -37
89 -19 38 16 50 13 100 -25 20 -17 70 -42 110 -57 68 -26 75 -32 114 -92 24
-35 58 -77 78 -94 19 -17 41 -49 50 -75 9 -25 29 -59 46 -76 33 -35 34 -33
-43 -77 -64 -37 -177 -187 -179 -237 -8 -214 -12 -228 -65 -253 -34 -17 -35
-17 -43 6 -17 45 -5 266 18 337 27 84 26 117 -4 192 -30 74 -64 112 -123 138
-24 11 -59 33 -79 49 -34 28 -37 29 -72 16 -52 -20 -120 -25 -163 -13 -58 17
-81 4 -145 -76 -40 -51 -79 -87 -128 -117 -38 -24 -88 -62 -111 -85 -30 -30
-53 -43 -81 -46 -21 -3 -59 -20 -84 -37 -93 -66 -145 -60 -240 25 -39 35 -75
64 -79 64 -11 0 -44 83 -64 160 -16 60 -16 73 -2 169 13 91 19 108 45 135 39
41 51 75 51 147 0 60 18 111 62 169 29 39 60 166 59 241 -1 36 6 85 14 109 20
58 19 125 -4 196 -11 32 -23 82 -27 111 -5 40 -15 61 -41 90 -18 21 -41 54
-51 73 -24 50 -137 155 -182 169 -21 6 -43 18 -50 26 -7 8 -31 20 -53 26 -24
6 -56 27 -79 50 -21 21 -41 39 -43 39 -3 0 -22 -7 -44 -16 -29 -12 -48 -13
-74 -6 -19 5 -45 8 -59 7 -72 -8 -174 -91 -207 -168 -11 -25 -32 -53 -46 -63
-14 -9 -34 -33 -45 -53 -10 -20 -30 -47 -44 -60 -14 -14 -26 -28 -26 -33 0
-32 -63 -131 -117 -183 -62 -60 -71 -78 -88 -178 -9 -54 -35 -77 -90 -77 -52
0 -76 20 -94 81 -7 23 -25 67 -41 98 -15 31 -31 66 -34 77 -9 30 -34 49 -88
67 -46 15 -48 15 -58 -3 -5 -10 -10 -27 -10 -37 0 -30 -38 -82 -65 -89 -27 -7
-159 37 -198 65 -12 9 -39 25 -60 35 -21 11 -48 34 -60 50 -11 17 -34 43 -51
57 -17 15 -37 44 -45 65 -8 22 -24 53 -37 69 -31 41 -64 114 -64 144 0 14 -14
36 -35 55 -24 22 -38 48 -48 83 -7 30 -23 62 -39 76 -21 20 -58 110 -58 143 0
5 -21 27 -46 51 l-47 42 7 62 c3 34 11 68 17 75 14 17 65 18 79 2 14 -19 100
-150 100 -155 0 -2 15 -38 34 -81 19 -42 37 -89 40 -104 3 -15 29 -51 56 -79
36 -37 55 -68 65 -104 9 -29 23 -60 33 -71 9 -10 30 -36 45 -57 26 -34 32 -37
75 -36 70 1 151 14 163 26 6 6 13 55 15 108 3 83 7 103 30 142 18 32 25 54 21
76 -2 18 0 64 5 102 15 118 13 137 -22 193 -17 29 -36 52 -41 52 -5 0 -49 40
-97 88 -48 49 -104 99 -124 111 -21 12 -45 35 -54 50 -12 20 -32 33 -68 45
-83 26 -216 151 -216 203 0 33 -24 63 -51 63 -46 0 -79 20 -79 48 0 23 3 24
41 19 22 -3 48 -12 57 -20z m4009 -163 c49 -32 54 -39 51 -67 -2 -20 -9 -32
-18 -32 -21 -1 -107 52 -114 70 -6 16 9 65 20 65 4 0 31 -16 61 -36z m144
-184 c20 -11 27 -64 9 -75 -32 -20 -77 32 -58 68 10 20 21 21 49 7z m12420
-330 c12 -7 19 -21 19 -41 0 -33 -25 -89 -40 -89 -5 0 -23 -27 -41 -61 -18
-34 -44 -68 -57 -77 -14 -9 -31 -31 -38 -49 -8 -18 -32 -44 -54 -58 -22 -14
-40 -33 -40 -42 0 -19 -115 -133 -135 -133 -7 0 -21 -23 -31 -52 -9 -28 -33
-70 -54 -92 -20 -23 -46 -57 -58 -78 -13 -20 -29 -38 -37 -42 -8 -3 -23 -23
-34 -44 -12 -24 -32 -44 -52 -52 -17 -7 -39 -25 -48 -40 -31 -50 -77 -104
-156 -184 -44 -45 -88 -94 -98 -109 -24 -38 -130 -105 -176 -112 -20 -3 -59
-17 -86 -30 -62 -31 -67 -31 -113 0 -41 27 -158 60 -250 71 -55 6 -61 4 -114
-29 -40 -26 -60 -46 -71 -75 -8 -21 -22 -44 -31 -51 -9 -7 -25 -44 -36 -82
-16 -52 -28 -73 -51 -90 -17 -12 -39 -40 -49 -63 -9 -22 -33 -60 -53 -84 -19
-23 -41 -59 -48 -80 -6 -20 -26 -55 -44 -77 -18 -22 -40 -54 -49 -72 -18 -36
-38 -50 -76 -53 -47 -4 -50 -2 -44 33 11 58 44 160 63 191 10 17 26 54 35 82
18 56 55 116 110 179 36 41 45 56 67 113 7 20 28 44 51 58 27 17 46 40 62 77
50 113 49 111 27 156 -17 33 -21 58 -20 143 0 57 4 126 10 153 5 28 13 93 18
145 14 144 37 250 58 270 21 21 143 75 189 85 26 5 36 1 55 -19 13 -13 39 -40
58 -60 l33 -35 -16 -109 c-9 -61 -27 -143 -41 -183 -14 -42 -25 -98 -25 -129
-1 -30 -7 -66 -15 -80 -23 -40 -18 -66 29 -137 78 -118 69 -113 199 -113 122
0 132 4 201 73 10 10 35 26 55 37 21 10 43 26 51 35 8 9 30 25 51 36 26 13 39
27 44 49 7 32 33 62 112 127 39 33 55 55 68 94 13 38 26 56 51 71 18 11 43 35
54 53 11 18 31 40 44 48 12 9 29 29 36 46 9 23 22 33 51 41 27 8 44 20 54 40
8 16 24 32 36 35 11 4 29 25 39 47 10 22 31 48 47 58 19 11 33 32 41 58 7 22
24 51 38 64 14 12 36 46 49 75 15 34 34 57 54 67 17 9 33 27 37 41 3 14 18 34
31 45 30 23 29 23 54 10z m-15267 -106 c9 -4 21 -15 26 -24 13 -25 -12 -50
-49 -50 -47 0 -66 34 -35 64 17 17 33 20 58 10z m3200 -27 c8 -12 7 -21 -6
-33 -15 -15 -17 -15 -28 6 -22 42 9 67 34 27z m284 -380 c2 -11 -3 -17 -17
-17 -23 0 -35 15 -26 31 10 15 39 6 43 -14z m4847 -172 c28 -4 136 -10 241
-13 190 -7 191 -7 233 -36 37 -26 54 -30 149 -37 134 -10 192 -23 262 -58 32
-17 103 -38 170 -51 65 -13 132 -33 155 -46 22 -12 62 -28 90 -35 27 -7 70
-26 96 -42 27 -16 81 -38 121 -49 40 -11 89 -29 108 -41 36 -23 177 -55 242
-56 26 -1 50 -11 83 -37 39 -29 62 -38 131 -49 71 -11 90 -19 124 -48 22 -18
59 -39 82 -46 24 -7 54 -23 68 -36 14 -12 49 -30 78 -40 31 -10 68 -31 87 -51
20 -20 51 -38 79 -45 29 -7 56 -23 76 -45 17 -19 38 -34 48 -35 87 -4 129 -18
155 -53 17 -22 40 -37 70 -46 27 -7 59 -26 78 -46 19 -19 51 -39 74 -45 22 -6
53 -23 68 -37 15 -15 47 -34 70 -43 27 -10 51 -30 68 -54 14 -20 40 -43 57
-51 18 -7 37 -24 43 -38 7 -14 28 -33 48 -42 40 -19 84 -53 171 -130 32 -29
70 -60 84 -69 31 -20 56 -64 56 -95 0 -12 14 -35 31 -51 18 -16 39 -44 48 -62
12 -23 27 -36 58 -45 25 -8 45 -21 48 -33 4 -11 21 -27 38 -35 18 -9 48 -33
68 -53 48 -48 232 -221 289 -271 25 -22 59 -45 76 -52 17 -6 39 -24 48 -40 10
-16 29 -36 42 -45 14 -9 31 -28 39 -44 20 -38 120 -134 155 -149 15 -6 34 -25
40 -40 7 -16 32 -55 56 -86 24 -31 44 -63 44 -71 0 -8 14 -28 30 -45 17 -17
39 -57 51 -91 11 -34 34 -76 50 -92 16 -17 29 -38 29 -46 0 -19 50 -99 75
-119 10 -8 26 -34 36 -57 10 -23 27 -46 37 -52 12 -6 29 -37 42 -75 11 -36 28
-70 36 -77 28 -23 42 -63 54 -159 6 -52 19 -108 27 -125 9 -16 24 -47 35 -68
11 -22 22 -71 25 -110 6 -65 9 -75 39 -102 35 -33 54 -71 54 -112 0 -14 16
-54 35 -89 29 -52 38 -81 51 -181 11 -85 22 -128 38 -153 35 -55 46 -97 52
-204 4 -74 12 -118 30 -162 13 -33 24 -80 24 -105 0 -24 7 -62 15 -84 8 -22
14 -63 15 -92 0 -59 46 -351 61 -390 5 -14 14 -79 19 -144 16 -201 28 -281 50
-353 13 -42 19 -81 16 -100 -3 -17 1 -56 9 -86 54 -210 51 -176 35 -420 -10
-150 -17 -199 -37 -258 l-25 -73 26 -77 c31 -91 35 -203 9 -267 -22 -55 -27
-129 -13 -179 6 -23 12 -85 13 -137 2 -83 -1 -98 -21 -126 -29 -41 -42 -111
-30 -171 9 -49 -2 -155 -23 -209 -5 -15 -26 -44 -45 -63 -29 -30 -35 -45 -39
-94 -7 -70 -15 -87 -49 -106 -17 -8 -30 -27 -36 -51 -6 -21 -29 -61 -51 -89
-36 -45 -42 -61 -53 -138 -10 -66 -21 -99 -45 -136 -17 -28 -31 -56 -31 -62 0
-47 -25 -119 -50 -144 -16 -17 -32 -46 -36 -67 -8 -47 -27 -84 -58 -118 -20
-22 -25 -40 -31 -118 -10 -127 -21 -182 -50 -241 -13 -28 -31 -76 -39 -106
-12 -43 -22 -59 -46 -73 -17 -11 -32 -29 -36 -45 -17 -83 -30 -118 -55 -143
-16 -17 -37 -57 -49 -95 -11 -37 -31 -78 -45 -91 -27 -28 -39 -60 -55 -153 -7
-35 -20 -76 -29 -90 -10 -14 -35 -56 -56 -95 -21 -38 -41 -72 -45 -75 -4 -3
-17 -24 -28 -46 -12 -23 -37 -51 -57 -62 -24 -15 -35 -28 -35 -45 0 -44 -23
-92 -64 -134 -87 -89 -116 -124 -116 -138 0 -8 -33 -48 -73 -89 -40 -41 -90
-99 -109 -128 -37 -54 -78 -97 -201 -214 -43 -41 -72 -77 -78 -98 -5 -19 -20
-38 -36 -47 -14 -8 -32 -29 -40 -47 -15 -37 -153 -176 -220 -223 -24 -17 -43
-34 -43 -40 0 -5 -20 -18 -44 -28 -24 -11 -53 -33 -65 -50 -13 -17 -41 -41
-64 -52 -23 -12 -58 -36 -77 -54 -19 -18 -52 -38 -72 -44 -21 -7 -45 -23 -55
-37 -10 -13 -44 -35 -75 -48 -32 -12 -67 -35 -79 -50 -28 -36 -189 -113 -272
-130 -38 -8 -84 -25 -106 -41 -22 -14 -67 -35 -101 -46 -34 -10 -82 -32 -105
-48 -67 -45 -231 -121 -261 -121 -35 0 -204 -38 -224 -51 -31 -19 -67 -31
-129 -44 -56 -12 -71 -21 -118 -67 -29 -29 -56 -61 -59 -73 -4 -11 -15 -29
-25 -41 -31 -33 -40 -79 -48 -249 l-7 -160 -34 -48 c-32 -44 -34 -53 -38 -144
-3 -54 1 -125 8 -162 11 -58 10 -71 -5 -106 -10 -25 -19 -85 -24 -161 -5 -95
-11 -127 -28 -155 -22 -37 -38 -83 -48 -141 -3 -23 -21 -55 -45 -83 -21 -24
-42 -55 -46 -67 -3 -13 -21 -39 -38 -60 -117 -138 -117 -137 -178 -154 -40
-12 -71 -28 -92 -50 -23 -24 -45 -35 -88 -43 -56 -10 -77 -19 -145 -62 -19
-12 -61 -23 -105 -28 -91 -10 -115 -23 -134 -66 -25 -61 -18 -126 22 -202 24
-45 37 -86 40 -123 3 -30 15 -95 26 -144 20 -84 20 -91 4 -140 -9 -29 -19 -75
-22 -102 -8 -57 -23 -91 -53 -118 -14 -13 -21 -31 -21 -55 -1 -67 -17 -111
-60 -157 -23 -25 -48 -60 -56 -79 -7 -18 -28 -44 -46 -56 -18 -12 -49 -37 -69
-54 -31 -27 -48 -33 -128 -44 -122 -17 -169 -9 -229 37 l-47 37 -100 -2 c-77
-1 -118 -7 -178 -27 -101 -34 -159 -34 -208 -1 -35 25 -41 26 -190 25 -85 0
-182 -4 -217 -8 -41 -6 -98 -4 -165 5 -56 8 -122 11 -147 8 -58 -8 -412 11
-476 25 -27 6 -71 20 -99 31 -40 18 -61 20 -116 15 -46 -4 -79 -1 -110 9 -24
8 -86 21 -137 29 -73 11 -99 19 -120 38 -15 14 -42 35 -60 47 -17 12 -37 31
-43 42 -22 42 -28 178 -18 434 l10 260 34 70 c32 64 36 82 45 208 10 133 7
179 -12 204 -5 6 -34 19 -64 29 -30 9 -64 27 -77 40 -36 35 -68 43 -169 42
-119 -1 -170 13 -203 56 -14 19 -40 40 -57 47 -36 15 -58 60 -58 118 0 27 -8
48 -25 69 -13 16 -29 40 -33 53 -18 47 -52 432 -52 582 0 54 -5 141 -11 193
-8 72 -7 109 2 152 7 33 11 115 10 192 -2 124 -4 141 -31 207 -17 39 -30 78
-30 86 0 8 -14 24 -32 35 -17 11 -39 35 -47 54 -11 21 -27 37 -47 43 -18 6
-73 46 -122 90 -126 111 -181 157 -222 185 -19 14 -45 37 -57 51 -13 15 -36
29 -53 33 -17 3 -45 16 -63 30 -18 13 -53 33 -78 44 -25 11 -55 33 -67 50 -12
16 -40 37 -63 46 -23 9 -49 26 -58 38 -10 11 -42 30 -72 42 -42 17 -59 31 -76
62 -13 22 -36 45 -55 54 -61 28 -117 75 -137 115 -18 36 -40 61 -166 185 -22
21 -52 42 -68 45 -15 4 -36 20 -47 35 -11 16 -45 42 -75 59 -30 17 -55 36 -55
41 0 6 -21 24 -47 40 -26 16 -59 45 -75 64 -16 19 -37 38 -48 41 -11 4 -27 20
-35 36 -9 16 -29 36 -45 44 -16 8 -37 29 -45 46 -9 16 -24 38 -34 48 -10 10
-33 40 -51 67 -18 27 -45 63 -60 79 -15 17 -33 46 -39 66 -6 20 -23 47 -37 60
-15 13 -39 51 -55 84 -16 33 -36 63 -44 68 -8 4 -22 24 -30 44 -8 20 -33 55
-55 79 -22 24 -40 47 -40 52 0 5 -17 26 -38 48 -41 42 -97 138 -138 237 -14
34 -36 73 -49 87 -12 14 -32 44 -44 67 -12 23 -35 58 -51 77 -17 18 -37 50
-45 69 -8 20 -26 47 -40 61 -15 15 -32 53 -44 96 -11 39 -34 95 -50 124 -17
29 -31 62 -31 72 -1 28 -34 95 -62 125 -14 15 -29 50 -37 82 -7 31 -23 71 -36
89 -33 45 -45 73 -56 138 -6 31 -26 80 -46 113 -24 40 -39 81 -48 133 -8 47
-21 84 -33 97 -29 33 -38 55 -52 132 -7 39 -24 94 -37 124 -14 30 -29 83 -34
119 -5 35 -11 67 -13 71 -2 3 -9 48 -15 99 -6 51 -18 112 -27 135 -36 99 -45
151 -53 308 -7 156 -9 168 -36 213 l-29 49 2 226 c1 178 -3 250 -18 341 -16
97 -19 180 -21 535 -3 531 10 675 70 776 16 27 24 70 35 173 13 123 18 142 45
183 17 25 33 62 36 82 17 113 28 152 55 206 28 56 31 72 39 220 9 159 11 168
66 314 9 25 23 79 31 120 8 42 26 101 39 131 13 30 31 88 41 129 12 57 23 81
46 101 25 23 32 42 48 125 11 53 29 117 41 141 11 24 27 74 35 111 9 45 26 85
50 121 22 32 42 77 51 115 10 44 24 72 47 97 20 21 36 50 40 72 4 20 22 56 41
78 19 23 42 66 51 96 8 29 30 71 48 93 23 28 37 58 45 100 8 41 21 72 40 94
16 18 36 49 45 70 8 21 29 52 46 69 17 16 39 47 49 67 11 20 31 47 45 60 14
14 31 43 37 65 6 23 21 52 33 66 12 14 39 48 59 75 20 28 49 63 66 78 16 15
33 36 36 47 4 11 11 20 16 20 15 0 159 148 159 164 0 8 13 23 30 32 16 10 36
32 45 50 8 17 28 37 43 43 16 7 36 27 45 46 9 19 30 41 46 49 16 9 33 26 37
38 11 35 192 206 233 219 19 7 51 27 71 46 19 18 52 38 72 45 21 6 44 18 52
27 30 34 112 122 134 143 12 13 39 40 60 61 21 20 46 37 56 37 10 0 33 16 51
35 19 19 57 44 87 55 29 12 63 34 76 50 12 16 36 32 54 35 17 4 50 25 73 46
27 25 53 40 71 40 69 4 132 30 159 64 14 19 33 35 40 35 8 0 32 15 53 34 21
19 63 44 93 56 29 12 68 32 84 44 17 12 53 30 80 40 28 10 70 31 95 46 43 27
64 34 175 60 28 6 66 21 85 34 40 26 86 42 150 50 25 4 71 22 102 41 47 28 73
36 146 44 71 8 98 16 139 41 47 29 59 32 189 41 175 13 178 14 216 49 39 38
79 45 192 34 136 -12 180 -9 301 19 75 18 162 30 275 36 91 6 246 17 345 26
99 8 270 18 380 20 110 3 223 9 250 14 50 8 58 7 150 -4z m8725 -845 c40 -40
20 -74 -63 -105 -67 -25 -127 -101 -127 -160 0 -29 -8 -54 -26 -81 -48 -70
-45 -163 5 -184 31 -12 46 -40 57 -103 5 -31 13 -42 40 -54 18 -9 40 -30 48
-48 8 -17 32 -46 52 -64 l37 -34 -7 -136 c-10 -191 -18 -231 -49 -255 -117
-93 -132 -97 -311 -96 -188 1 -222 -4 -274 -40 -48 -34 -92 -38 -149 -15 -22
9 -67 15 -122 15 -175 0 -386 31 -414 61 -26 28 -59 39 -115 39 -44 0 -64 9
-123 51 -34 25 -177 -82 -220 -164 -11 -21 -36 -48 -55 -59 -19 -11 -39 -29
-45 -39 -9 -18 -70 -68 -161 -133 -23 -16 -56 -46 -75 -67 -37 -41 -113 -88
-196 -120 -29 -11 -66 -34 -83 -50 -16 -16 -56 -38 -88 -50 -32 -11 -79 -36
-104 -55 -25 -18 -52 -34 -61 -35 -9 -1 -25 -2 -36 -3 -11 -1 -29 -3 -41 -4
-11 -1 -36 -15 -54 -32 -36 -33 -69 -37 -132 -19 -68 18 -41 64 50 84 22 4 40
18 55 41 22 33 45 47 102 60 17 4 49 23 71 43 59 51 161 107 211 116 24 3 56
16 72 28 79 59 112 82 183 128 44 28 84 62 93 78 10 19 35 39 78 59 73 34 101
67 112 132 20 114 -2 199 -74 295 -79 105 -111 185 -111 276 0 90 16 128 79
190 l57 56 102 7 c132 9 171 -10 209 -103 8 -20 31 -56 52 -81 l36 -44 0 -206
c0 -177 3 -209 18 -237 17 -32 20 -33 80 -33 45 0 77 -7 115 -25 30 -14 62
-25 72 -25 9 0 39 -12 65 -27 45 -25 51 -26 104 -15 45 9 76 9 155 -3 54 -8
116 -20 137 -25 50 -14 460 -5 488 9 11 6 24 26 31 44 6 19 28 48 49 65 33 26
39 38 44 83 4 28 12 61 20 73 26 40 25 53 -4 97 -17 26 -32 65 -36 94 -5 38
-14 58 -44 89 -28 28 -41 53 -49 90 -6 28 -22 64 -35 80 -36 42 -45 86 -45
220 l0 119 33 31 c19 17 42 44 52 59 29 45 178 136 223 137 12 0 31 -9 42 -20z
m-14286 -742 c32 -45 -30 -81 -68 -39 -14 15 -15 24 -6 40 14 28 55 27 74 -1z
m-552 -525 c5 -41 -11 -76 -29 -62 -16 14 -17 43 -1 69 17 27 26 25 30 -7z
m-3601 -1255 c24 -25 52 -41 93 -53 66 -19 97 -47 113 -100 11 -34 11 -101 0
-111 -3 -3 -22 3 -44 14 -21 11 -54 23 -73 27 -57 12 -91 34 -162 105 -50 50
-68 75 -72 103 -9 58 -3 64 58 57 45 -5 59 -12 87 -42z m424 -252 c26 -8 62
-28 79 -45 17 -16 53 -38 81 -48 82 -30 70 -57 -32 -70 -58 -7 -104 11 -131
51 -13 19 -36 40 -53 46 -31 13 -39 46 -17 68 15 15 15 15 73 -2z m403 -223
c3 -17 -2 -23 -16 -23 -24 0 -46 25 -37 40 12 19 50 7 53 -17z m822 -347 c0
-2 -7 -6 -15 -10 -8 -3 -15 -1 -15 4 0 6 7 10 15 10 8 0 15 -2 15 -4z m14815
-915 c209 -27 219 -30 263 -61 39 -28 49 -30 115 -28 66 2 78 -1 124 -29 63
-39 93 -64 88 -73 -3 -4 25 -10 60 -13 35 -3 76 -14 90 -23 25 -17 26 -18 8
-35 -34 -33 -96 -28 -158 13 -46 31 -51 32 -140 29 -110 -3 -198 12 -280 46
-67 29 -179 45 -325 47 -84 1 -102 4 -155 31 -53 26 -60 34 -61 60 -1 54 7 57
150 52 72 -2 172 -9 221 -16z m-14174 -933 c19 -6 55 -31 81 -55 26 -23 52
-43 57 -43 16 0 24 -40 11 -55 -15 -18 -79 -20 -114 -4 -15 7 -30 26 -37 46
-6 19 -24 48 -40 64 -51 52 -32 73 42 47z m-1963 -798 c26 0 61 -7 88 -20 39
-20 43 -25 38 -48 -21 -92 -111 -127 -246 -98 -40 9 -89 18 -109 21 -19 3 -44
11 -54 19 -30 22 -4 69 59 106 47 29 56 30 116 25 36 -4 84 -6 108 -5z m540
-8 c21 -3 13 -52 -13 -77 -28 -29 -46 -30 -209 -15 -101 10 -176 31 -176 50 0
15 32 33 68 39 33 5 297 7 330 3z m194 -15 c11 -17 -28 -47 -62 -47 -26 0 -60
22 -60 39 0 4 6 13 13 20 15 16 97 7 109 -12z m15344 -63 c97 -6 133 -18 166
-54 27 -30 29 -31 100 -25 69 6 75 5 118 -23 25 -16 77 -37 115 -47 114 -29
157 -45 205 -75 25 -16 64 -33 88 -38 59 -14 92 -37 92 -67 0 -13 -4 -26 -10
-30 -5 -3 -58 -3 -117 1 -106 7 -109 8 -140 41 -31 32 -35 34 -119 37 -77 4
-92 8 -130 34 -45 32 -178 72 -241 72 -60 0 -145 24 -187 53 -42 29 -95 47
-140 47 -29 0 -66 24 -66 43 0 6 7 19 17 29 17 19 13 19 249 2z m-13418 -1551
c2 -16 -5 -26 -30 -38 -18 -10 -46 -32 -63 -51 -30 -33 -31 -34 -128 -38 -104
-4 -104 -4 -121 -38 -6 -13 -27 -31 -46 -40 -181 -86 -230 -108 -261 -113 -20
-4 -62 -24 -93 -45 -82 -56 -134 -63 -358 -50 -13 0 0 54 16 66 9 6 53 18 98
25 52 8 92 21 112 36 66 47 91 56 166 59 64 3 78 6 93 26 10 13 24 31 32 40 7
9 35 19 62 23 26 3 102 22 168 40 66 19 139 39 163 45 23 6 42 15 42 20 0 5
17 21 38 35 47 33 105 32 110 -2z m-1193 -453 c3 -6 2 -10 -4 -10 -6 0 -22
-20 -37 -45 -32 -56 -43 -62 -124 -70 -82 -8 -150 -29 -222 -69 -53 -29 -58
-30 -94 -17 -21 8 -45 21 -53 29 -13 13 -12 17 13 38 15 13 35 24 44 24 9 0
31 17 49 37 l31 38 82 -2 c69 -3 88 0 116 18 47 29 187 49 199 29z m-655 -215
c20 -10 30 -23 30 -38 0 -36 -36 -51 -130 -53 -141 -2 -191 -15 -238 -58 -21
-19 -34 -21 -114 -19 -74 2 -96 -1 -117 -16 -65 -46 -171 -91 -213 -90 -147 3
-187 70 -58 98 28 6 67 11 87 11 20 0 50 9 68 20 19 12 71 26 124 34 67 10
101 20 129 40 65 45 170 75 243 69 35 -2 75 0 89 6 36 14 67 13 100 -4z m-990
-210 c26 -14 30 -21 30 -60 0 -32 -6 -51 -24 -72 -23 -27 -28 -28 -115 -28
-73 0 -94 3 -108 18 -14 13 -15 21 -7 35 20 31 156 120 187 122 4 0 21 -7 37
-15z m15088 -737 c22 -18 54 -41 71 -50 23 -13 41 -36 61 -80 16 -35 47 -85
69 -113 22 -27 53 -75 69 -105 15 -30 42 -68 58 -85 17 -16 35 -37 40 -45 5
-8 26 -28 47 -43 20 -16 46 -45 56 -65 11 -20 30 -47 44 -59 14 -11 28 -34 31
-50 8 -32 23 -54 51 -69 11 -6 31 -32 45 -58 14 -25 37 -56 51 -69 14 -12 32
-39 38 -60 8 -25 23 -43 43 -53 44 -23 104 -91 118 -135 7 -21 30 -59 51 -84
22 -26 39 -48 39 -49 0 -1 5 -29 11 -61 11 -58 34 -93 108 -159 66 -58 95
-102 151 -226 4 -8 21 -24 38 -35 19 -12 41 -42 57 -77 14 -31 36 -66 50 -76
13 -10 30 -35 38 -54 9 -20 27 -44 40 -53 14 -9 32 -33 40 -53 8 -20 32 -51
54 -68 25 -21 43 -46 51 -71 7 -22 28 -56 48 -77 22 -22 33 -43 30 -54 -2 -9
-7 -32 -11 -49 -5 -26 -12 -33 -30 -33 -17 0 -28 11 -44 46 -13 27 -35 53 -55
65 -22 13 -40 35 -51 61 -9 23 -32 59 -51 81 -18 22 -34 49 -34 58 0 21 -89
129 -159 193 -11 10 -23 31 -26 48 -4 16 -20 38 -36 50 -16 12 -32 31 -35 42
-4 11 -26 40 -49 65 -24 25 -49 62 -58 81 -8 19 -28 49 -44 66 -21 21 -32 46
-37 78 -6 41 -12 49 -45 65 -20 11 -42 31 -49 45 -6 14 -27 36 -46 48 -20 13
-40 35 -46 49 -6 15 -27 42 -46 60 -23 22 -40 52 -50 89 -16 54 -28 71 -119
161 -26 26 -50 61 -56 81 -5 20 -23 51 -40 69 -17 18 -39 50 -50 71 -10 21
-32 44 -49 53 -16 8 -41 35 -56 60 -14 25 -30 45 -34 45 -5 0 -42 51 -83 113
-41 62 -86 119 -101 126 -14 8 -26 18 -26 22 0 4 -20 27 -44 51 -24 23 -52 61
-61 84 -9 23 -29 51 -45 63 -26 19 -30 28 -30 69 0 35 6 54 20 70 27 29 31 28
78 -10z m-1650 -2116 c24 -24 45 -59 56 -93 10 -29 33 -71 52 -91 19 -21 34
-44 34 -51 0 -34 24 -90 55 -127 32 -38 35 -48 35 -105 0 -86 8 -117 37 -151
32 -37 43 -66 43 -111 0 -28 8 -42 39 -72 38 -35 40 -39 47 -119 6 -71 12 -91
38 -130 18 -26 47 -84 65 -129 29 -75 32 -89 25 -151 -6 -68 -6 -70 25 -101
43 -44 52 -71 50 -152 -2 -62 0 -69 25 -91 23 -20 28 -34 35 -103 5 -44 14
-92 20 -108 6 -15 8 -46 5 -70 -5 -36 -2 -46 21 -71 30 -32 45 -66 45 -101 0
-35 19 -71 45 -85 13 -7 28 -23 34 -37 10 -21 7 -27 -21 -53 -45 -41 -41 -78
13 -137 39 -42 41 -48 36 -90 -2 -25 -14 -58 -26 -74 -26 -35 -26 -63 -2 -142
36 -114 35 -308 -1 -407 -14 -41 -46 -36 -57 8 -28 108 -34 187 -22 282 7 52
15 118 18 146 6 56 9 50 -67 113 l-34 29 -11 198 c-10 184 -13 203 -38 257
-15 32 -27 68 -27 80 0 12 -11 72 -25 132 -14 61 -25 122 -25 137 0 14 -15 58
-34 97 -19 39 -37 96 -41 128 -5 45 -13 65 -36 89 -16 17 -48 66 -70 110 -46
92 -69 197 -69 326 0 81 -2 90 -28 120 -16 18 -37 55 -47 82 -11 27 -29 61
-41 76 -13 15 -34 56 -48 92 -13 37 -31 77 -40 90 -8 13 -31 72 -50 131 -25
77 -47 124 -75 160 -42 55 -121 210 -121 238 0 9 9 28 21 43 16 20 29 26 60
26 32 0 46 -7 77 -38z m-1873 -1451 c3 -5 1 -12 -5 -16 -5 -3 -10 -1 -10 5 0
6 -5 8 -12 4 -7 -4 -8 -3 -4 4 9 14 23 15 31 3z m-75 -172 c0 -10 -5 -21 -11
-25 -18 -11 -32 13 -25 41 6 22 9 25 21 15 8 -7 15 -21 15 -31z m2885 -1771
c7 -18 11 -37 8 -41 -3 -5 -5 -67 -4 -139 1 -73 -4 -146 -10 -168 -10 -32 -8
-57 6 -133 19 -103 15 -123 -31 -154 -24 -15 -26 -15 -42 1 -15 14 -17 36 -14
148 1 71 -2 147 -8 167 -14 55 -14 319 0 336 7 8 28 15 47 15 29 0 36 -5 48
-32z m-26 -704 c15 -20 21 -41 21 -81 0 -67 -12 -93 -40 -86 -11 3 -20 6 -20
7 0 0 -5 28 -10 61 -7 43 -6 69 2 92 15 40 21 41 47 7z m88 -352 c-4 -34 -13
-72 -22 -85 -10 -14 -15 -17 -15 -7 -1 12 -3 11 -14 -2 -19 -26 -43 -22 -49 8
-13 71 15 174 48 174 8 0 15 6 15 13 1 6 10 1 22 -13 17 -22 20 -34 15 -88z"/>
<path d="M3039 16702 c-8 -4 -33 -22 -55 -39 -21 -18 -59 -47 -83 -65 -61 -47
-121 -162 -121 -237 0 -53 1 -54 65 -117 36 -35 68 -64 70 -64 3 0 23 -13 45
-29 l40 -29 80 18 c77 17 148 47 181 76 9 8 22 41 29 74 9 41 23 70 45 96 38
43 49 90 29 119 -45 64 -116 144 -153 173 -37 28 -50 32 -99 31 -31 0 -64 -3
-73 -7z"/>
<path d="M8884 16560 c-17 -4 -53 -18 -80 -31 -45 -22 -62 -24 -204 -25 -134
0 -169 -4 -257 -27 -56 -15 -113 -27 -128 -27 -14 0 -39 -7 -56 -15 -16 -9
-82 -22 -147 -30 -139 -17 -183 -28 -207 -55 -16 -17 -61 -30 -156 -45 -20 -3
-57 -19 -82 -36 -38 -25 -61 -32 -139 -40 -125 -12 -149 -18 -179 -44 -31 -26
-64 -38 -144 -56 -36 -8 -71 -24 -90 -40 -28 -25 -109 -59 -139 -59 -44 0
-203 -94 -235 -138 -11 -16 -34 -35 -51 -42 -16 -7 -30 -16 -30 -20 0 -4 -22
-19 -48 -33 -27 -14 -54 -38 -62 -52 -8 -14 -28 -35 -46 -46 -18 -11 -36 -29
-39 -40 -4 -10 -22 -31 -41 -46 -19 -14 -42 -39 -50 -54 -8 -16 -30 -36 -49
-45 -21 -10 -38 -26 -41 -40 -3 -13 -19 -35 -34 -47 -15 -13 -36 -44 -47 -68
-11 -24 -40 -62 -65 -84 -75 -66 -140 -115 -154 -115 -8 0 -31 -15 -51 -33
-21 -18 -54 -43 -73 -55 -19 -11 -50 -37 -69 -56 -19 -20 -50 -41 -68 -47 -23
-7 -39 -22 -53 -49 -11 -21 -29 -41 -40 -45 -12 -4 -33 -25 -47 -48 -14 -23
-35 -48 -45 -55 -10 -7 -35 -39 -55 -70 -20 -31 -44 -62 -53 -69 -10 -7 -27
-33 -40 -59 -12 -26 -30 -54 -40 -63 -10 -9 -31 -45 -46 -81 -15 -36 -35 -74
-45 -85 -9 -11 -26 -38 -37 -61 -11 -22 -28 -47 -38 -55 -9 -8 -32 -37 -51
-66 -18 -29 -43 -63 -56 -75 -13 -13 -31 -48 -41 -78 -10 -30 -29 -70 -44 -89
-17 -23 -30 -59 -39 -110 -7 -45 -21 -86 -33 -101 -11 -14 -33 -51 -49 -82
-16 -32 -42 -71 -60 -87 -24 -22 -31 -37 -31 -66 0 -51 -26 -146 -61 -227 -17
-39 -34 -102 -40 -150 -7 -49 -23 -109 -40 -147 -16 -35 -34 -93 -40 -130 -7
-43 -23 -86 -44 -122 -19 -31 -41 -87 -51 -130 -9 -41 -25 -89 -36 -107 -17
-27 -22 -61 -29 -180 -8 -140 -17 -211 -38 -312 -6 -25 -10 -69 -11 -97 0 -39
-8 -68 -30 -110 -30 -58 -52 -178 -66 -363 -3 -36 -16 -98 -30 -138 -18 -54
-24 -93 -24 -155 1 -90 12 -132 53 -191 24 -35 27 -48 27 -129 0 -54 -7 -115
-16 -149 -16 -55 -16 -65 -1 -136 9 -42 19 -118 21 -168 7 -119 31 -249 75
-414 12 -41 21 -87 21 -101 0 -16 11 -37 25 -50 41 -38 52 -68 59 -159 6 -75
11 -91 42 -137 34 -49 44 -81 74 -228 25 -123 70 -238 110 -281 26 -29 41 -56
49 -93 6 -28 24 -81 41 -117 16 -37 30 -74 30 -83 1 -25 39 -103 64 -131 13
-14 33 -56 45 -94 12 -38 30 -81 40 -95 10 -14 24 -53 31 -86 7 -33 23 -77 34
-99 12 -21 28 -53 37 -70 10 -17 23 -65 30 -106 10 -59 18 -80 40 -100 15 -14
39 -50 53 -81 13 -31 36 -66 50 -77 15 -11 33 -36 41 -55 8 -20 28 -45 45 -57
16 -12 30 -28 30 -36 0 -8 16 -31 35 -53 19 -21 46 -63 60 -94 15 -32 40 -66
60 -82 19 -14 35 -32 35 -39 0 -7 12 -23 26 -37 14 -13 35 -43 46 -66 11 -24
24 -43 28 -43 20 0 69 -61 80 -98 7 -27 22 -50 41 -64 17 -13 38 -36 46 -51 8
-17 32 -36 59 -47 24 -11 47 -26 50 -34 3 -9 40 -32 81 -53 42 -21 78 -44 80
-51 3 -7 22 -21 43 -32 22 -11 42 -31 50 -49 7 -17 21 -33 32 -37 12 -3 42
-27 69 -53 26 -25 55 -53 63 -61 9 -8 47 -48 85 -87 37 -40 73 -73 78 -73 6 0
39 -22 74 -50 35 -27 70 -50 76 -50 7 0 31 -16 53 -36 25 -23 65 -44 107 -58
38 -12 88 -33 113 -48 25 -15 61 -34 80 -43 20 -9 43 -29 52 -45 10 -18 28
-31 48 -35 18 -4 49 -22 69 -39 20 -18 52 -42 72 -54 20 -12 49 -38 63 -56 15
-20 42 -40 63 -47 21 -6 47 -21 59 -32 11 -11 48 -28 81 -38 46 -14 67 -28 87
-54 20 -26 35 -35 57 -35 37 0 69 -20 140 -91 52 -51 58 -60 64 -111 6 -47 13
-62 46 -94 25 -25 41 -50 45 -73 10 -62 26 -105 52 -138 22 -30 25 -49 38
-205 13 -163 16 -177 48 -243 31 -63 36 -84 47 -203 11 -133 11 -151 -12 -312
-14 -94 -12 -375 2 -402 13 -25 47 -41 67 -32 24 10 19 10 107 17 44 4 254 10
468 12 l387 5 38 24 c67 42 109 48 161 25 63 -28 220 -59 299 -59 36 0 128 7
206 16 112 13 153 14 202 5 85 -15 147 -14 193 5 37 15 41 14 80 -5 47 -25
137 -28 166 -7 19 13 19 15 0 57 -10 24 -31 60 -46 80 l-28 37 32 43 c91 122
117 183 117 279 0 30 5 71 10 90 27 91 50 230 50 299 0 42 7 99 16 126 8 28
19 92 23 143 7 77 13 100 38 141 17 27 36 73 42 102 10 48 20 62 87 127 42 39
81 72 89 72 7 0 34 18 61 40 35 28 60 41 93 45 97 13 168 33 205 59 21 14 42
26 45 26 46 0 187 33 208 48 38 27 100 52 130 52 15 0 36 13 56 34 19 21 56
44 91 57 56 20 59 24 89 88 17 36 46 80 64 97 18 17 33 36 33 42 0 20 67 43
109 36 57 -9 91 14 91 63 0 19 9 50 20 68 32 52 122 123 169 134 46 10 52 14
159 113 50 47 80 68 97 68 28 0 75 40 75 64 0 8 16 24 35 36 19 12 35 26 35
31 0 5 19 18 43 29 43 20 105 73 131 112 8 13 14 45 13 73 -1 67 9 92 41 109
55 29 119 108 136 168 13 46 23 61 52 78 19 12 42 34 52 49 9 14 29 41 44 59
15 18 28 39 28 48 0 18 94 110 133 131 16 8 36 28 45 44 10 16 29 33 45 38 15
6 36 25 47 44 12 19 34 41 51 48 18 7 37 26 46 44 9 18 28 39 44 46 27 13 155
124 209 181 54 58 88 105 104 142 9 22 25 46 36 53 11 8 29 31 39 52 11 20 35
56 54 78 24 30 38 59 46 102 8 42 21 72 41 95 18 20 34 54 41 87 9 41 21 62
49 89 32 29 39 44 45 89 6 41 14 60 32 75 52 44 63 57 63 77 0 11 15 48 34 82
23 41 38 86 45 132 16 100 31 154 57 200 12 22 29 80 38 128 10 61 23 101 40
125 24 36 38 85 51 184 3 25 17 61 30 80 38 51 44 72 59 187 8 58 24 133 35
166 26 76 51 301 51 462 0 126 5 149 42 190 16 17 20 34 19 80 -1 32 -2 83 -3
113 -1 30 6 79 16 107 16 49 17 81 7 445 -6 216 -16 414 -22 440 -9 39 -7 58
7 105 10 34 17 91 17 136 0 73 -2 81 -33 118 -34 43 -45 73 -55 159 -5 35 -18
72 -37 103 -21 32 -37 79 -50 140 -13 66 -25 98 -43 117 -16 17 -30 51 -41
100 -9 41 -28 98 -41 125 -14 28 -36 102 -49 165 -13 65 -32 126 -43 141 -10
14 -30 57 -43 95 -15 41 -37 82 -55 100 -23 23 -33 44 -38 80 -9 69 -12 76
-39 105 -30 33 -46 63 -46 88 0 32 -20 68 -47 82 -14 7 -32 27 -40 44 -9 16
-31 47 -49 67 -18 20 -39 56 -45 79 -9 29 -23 48 -45 61 -18 10 -35 30 -38 44
-4 13 -21 41 -40 62 -18 20 -41 53 -52 72 -10 19 -35 53 -55 75 -20 22 -40 51
-44 65 -4 14 -22 41 -41 60 -19 19 -73 77 -122 127 -121 128 -125 133 -179
181 -97 87 -129 110 -163 117 -53 11 -84 30 -113 69 -15 19 -37 38 -49 41 -26
8 -111 70 -179 130 -68 60 -150 117 -182 126 -16 4 -48 24 -70 44 -117 101
-153 129 -185 142 -19 8 -50 29 -68 46 -18 18 -52 48 -76 68 -24 20 -63 54
-88 76 -43 38 -117 73 -152 73 -9 0 -38 16 -64 36 -26 20 -68 43 -93 52 -25 8
-64 30 -88 48 -23 18 -59 38 -80 45 -21 6 -52 23 -69 36 -18 13 -62 33 -99 43
-37 11 -75 26 -84 34 -9 8 -47 22 -86 31 -84 21 -145 45 -145 57 0 17 -53 58
-75 58 -35 0 -107 28 -132 52 -17 16 -48 24 -135 35 -62 8 -127 17 -145 19
-18 3 -45 15 -60 28 -22 18 -46 25 -108 30 -117 10 -215 34 -257 63 -32 22
-51 26 -130 29 -130 4 -308 31 -328 49 -9 8 -35 21 -59 30 -60 21 -314 21
-417 -1 -66 -13 -111 -14 -352 -4 -153 6 -284 12 -292 14 -8 2 -29 0 -46 -4z
m1281 -380 c16 -17 19 -39 19 -144 1 -122 1 -123 40 -198 44 -86 43 -111 -8
-128 -48 -16 -84 -3 -111 39 -20 31 -25 53 -29 148 -4 78 -12 128 -26 164 -24
60 -20 79 21 114 37 30 70 32 94 5z m1243 -222 c5 -7 13 -31 16 -53 6 -33 2
-50 -20 -90 -23 -44 -27 -63 -29 -155 -4 -197 -15 -270 -47 -327 -24 -44 -30
-69 -38 -160 -12 -141 -17 -166 -51 -238 -15 -33 -35 -96 -44 -140 -10 -48
-27 -95 -42 -117 -24 -36 -60 -122 -87 -213 -7 -22 -18 -53 -25 -69 -6 -16
-16 -49 -21 -75 -6 -25 -12 -56 -15 -67 -3 -12 -21 -41 -40 -64 -19 -23 -35
-47 -35 -53 0 -34 -24 -90 -54 -126 -20 -24 -36 -56 -40 -81 -4 -29 -18 -53
-46 -83 -25 -26 -42 -54 -46 -76 -9 -57 -12 -64 -47 -118 -24 -37 -37 -74 -46
-125 -13 -80 -29 -128 -41 -128 -13 0 -38 -78 -50 -154 -6 -38 -24 -94 -40
-125 -18 -36 -34 -92 -45 -156 -14 -85 -21 -105 -46 -130 -16 -17 -29 -42 -29
-55 -1 -14 -8 -54 -16 -90 -8 -36 -18 -76 -21 -90 -3 -14 -16 -47 -29 -75 -12
-27 -26 -77 -29 -110 -10 -93 -24 -137 -56 -172 -15 -18 -33 -51 -39 -72 -6
-25 -22 -48 -40 -61 -23 -17 -32 -33 -41 -83 -10 -49 -20 -69 -49 -98 -27 -26
-42 -54 -54 -100 -10 -35 -24 -71 -32 -79 -27 -31 -44 -92 -50 -178 -8 -112
-4 -117 104 -110 86 6 132 22 177 62 17 14 39 26 51 26 39 0 109 27 137 52 19
18 48 29 95 38 39 7 88 24 116 42 32 19 78 35 128 43 57 10 95 24 137 50 34
21 88 43 127 52 38 8 88 26 110 40 28 15 69 27 120 33 96 11 128 20 187 54 26
14 81 34 123 45 56 14 84 28 106 50 21 22 42 32 76 36 65 9 101 22 142 50 20
14 57 27 85 31 73 9 197 44 216 61 21 17 112 53 138 53 11 0 34 12 51 26 20
18 59 33 113 46 48 11 95 29 114 44 18 14 60 34 94 45 33 11 78 33 99 48 24
17 64 33 102 40 111 22 152 34 193 57 22 12 85 34 140 49 55 15 116 33 135 41
93 36 163 47 230 34 141 -26 168 -46 177 -131 4 -48 2 -58 -24 -94 -16 -22
-39 -69 -51 -104 -12 -36 -31 -75 -43 -87 -25 -27 -38 -80 -39 -154 -1 -95
-12 -128 -70 -200 -11 -14 -24 -49 -30 -79 -8 -41 -20 -64 -50 -97 -22 -24
-40 -49 -40 -56 0 -7 -16 -26 -35 -43 -30 -25 -38 -41 -50 -99 -8 -38 -23 -80
-32 -93 -10 -13 -33 -45 -50 -71 -18 -26 -48 -64 -68 -84 -19 -20 -35 -44 -35
-52 0 -8 -14 -31 -31 -50 -19 -22 -38 -62 -51 -108 -12 -43 -32 -86 -48 -105
-18 -20 -33 -53 -40 -88 -7 -35 -20 -64 -35 -78 -13 -12 -38 -52 -54 -88 -17
-37 -37 -69 -45 -72 -8 -3 -26 -24 -40 -46 -14 -22 -35 -42 -46 -46 -12 -4
-30 -25 -40 -48 -10 -23 -37 -64 -59 -91 -23 -26 -41 -57 -41 -68 0 -25 -13
-48 -48 -85 -27 -30 -52 -91 -52 -128 0 -9 -15 -35 -34 -57 -23 -26 -39 -59
-46 -91 -6 -29 -22 -63 -35 -77 -13 -14 -35 -48 -49 -76 -14 -29 -38 -59 -52
-69 -14 -9 -32 -32 -40 -50 -7 -18 -27 -43 -43 -54 -16 -12 -34 -36 -41 -55
-6 -18 -24 -46 -41 -62 -17 -16 -41 -50 -54 -75 -13 -25 -35 -53 -49 -62 -16
-11 -30 -35 -40 -72 -9 -30 -29 -70 -45 -87 -15 -18 -36 -57 -46 -86 -9 -29
-34 -73 -55 -97 -21 -25 -42 -55 -45 -67 -4 -13 -18 -35 -32 -49 -13 -15 -31
-53 -40 -85 -11 -44 -23 -66 -47 -86 -18 -14 -38 -44 -44 -65 -6 -21 -29 -57
-51 -80 -21 -24 -44 -55 -50 -70 -7 -16 -26 -37 -43 -48 -18 -11 -35 -33 -39
-49 -5 -16 -21 -43 -37 -60 -17 -17 -37 -45 -46 -63 -9 -18 -36 -52 -61 -76
-25 -25 -45 -52 -45 -60 0 -9 -16 -28 -35 -42 -23 -18 -37 -38 -41 -61 -4 -20
-18 -44 -34 -57 -15 -12 -40 -42 -55 -67 -15 -25 -40 -59 -56 -75 -18 -20 -32
-48 -38 -79 -6 -32 -19 -58 -39 -79 -17 -18 -38 -49 -47 -70 -9 -23 -29 -46
-50 -58 -18 -11 -38 -33 -43 -48 -6 -16 -21 -39 -35 -52 -14 -13 -31 -36 -38
-51 -8 -15 -54 -70 -102 -123 -82 -88 -167 -192 -167 -205 -3 -69 -23 -138
-54 -183 -33 -47 -37 -62 -46 -152 -5 -55 -10 -105 -10 -112 0 -7 -13 -27 -29
-45 -16 -18 -36 -50 -45 -71 -8 -21 -36 -61 -60 -88 -24 -27 -47 -61 -51 -76
-3 -15 -15 -39 -25 -53 -10 -14 -30 -52 -44 -84 -14 -32 -37 -67 -51 -78 -14
-11 -32 -35 -39 -53 -8 -19 -28 -41 -45 -50 -17 -8 -37 -28 -46 -44 -8 -16
-28 -33 -44 -39 -19 -7 -37 -25 -50 -51 -11 -22 -29 -42 -39 -45 -11 -4 -27
-24 -37 -45 -9 -21 -28 -45 -42 -52 -14 -7 -36 -36 -50 -64 -23 -43 -125 -157
-165 -181 -7 -5 -28 -28 -46 -51 -20 -26 -47 -46 -70 -54 -20 -6 -51 -24 -69
-39 -38 -34 -60 -38 -288 -51 -99 -6 -203 -13 -231 -15 -46 -5 -54 -3 -94 28
-91 70 -84 32 -90 530 -3 242 -1 481 3 531 4 51 10 134 12 185 4 78 9 98 29
125 17 23 25 51 30 102 4 39 11 115 16 170 5 55 19 127 30 160 32 88 50 178
60 287 6 82 13 107 39 153 21 37 34 78 41 127 14 105 30 166 57 223 13 28 28
80 33 115 22 145 32 184 58 223 27 40 27 44 30 226 1 102 -1 192 -6 200 -18
27 -166 40 -244 22 -21 -5 -51 -21 -69 -35 -37 -31 -106 -35 -170 -10 -38 16
-43 16 -75 0 -51 -24 -146 -21 -201 6 l-43 22 -53 -23 c-28 -13 -86 -33 -127
-45 -41 -13 -93 -35 -114 -49 -23 -16 -53 -27 -75 -28 -171 -3 -269 -16 -321
-41 -83 -39 -83 -39 -266 -53 -158 -11 -175 -14 -205 -38 -49 -37 -129 -57
-254 -64 -98 -5 -114 -9 -150 -33 -43 -30 -87 -36 -400 -61 -110 -9 -158 -18
-230 -42 -89 -31 -92 -31 -298 -32 l-208 0 -39 43 c-22 23 -43 42 -48 42 -5 0
-21 11 -36 25 -23 21 -26 32 -26 84 0 60 -1 61 -40 86 -22 14 -40 26 -40 28 0
1 -7 38 -16 82 -12 66 -13 97 -4 180 17 156 29 203 59 238 38 44 48 64 56 121
6 35 17 60 42 87 29 32 36 49 43 105 7 54 14 72 39 98 17 18 31 37 31 43 0 5
17 30 39 54 21 24 47 68 57 98 15 41 28 59 57 77 20 14 37 29 37 35 0 7 15 26
34 43 18 18 45 51 60 74 14 23 31 42 36 42 6 0 25 24 44 53 18 28 61 79 95
112 34 33 74 80 88 105 15 25 42 59 60 76 18 18 33 41 33 53 0 20 35 65 141
181 92 101 121 140 133 174 14 40 83 118 121 138 18 9 34 32 51 73 13 34 36
69 53 82 16 13 35 38 41 57 6 19 21 38 36 44 14 7 32 30 44 56 10 25 30 52 44
61 13 9 35 40 47 69 14 35 32 59 51 71 17 9 36 32 44 51 8 18 27 40 43 49 18
9 34 28 40 48 6 18 25 43 41 56 17 12 36 36 44 54 7 18 34 54 60 81 25 27 46
54 46 61 0 6 17 26 39 43 23 19 41 42 44 61 4 17 18 41 33 53 14 13 32 35 40
50 8 15 32 44 54 64 23 22 45 54 52 76 7 22 25 48 44 63 18 14 36 34 39 45 4
11 24 29 44 40 28 14 43 31 55 60 9 22 20 40 25 40 18 0 41 31 51 71 6 23 28
60 49 82 21 23 42 53 46 67 7 25 33 57 116 139 25 25 53 65 63 88 10 23 36 55
56 72 21 17 42 41 46 53 3 13 22 40 40 61 19 20 34 43 34 50 0 7 14 26 30 42
17 16 41 48 55 70 13 22 58 76 100 120 42 44 83 97 91 117 9 21 25 40 36 44
10 3 28 19 38 36 10 16 32 38 49 49 17 10 33 30 37 46 12 49 42 97 78 126 34
26 55 47 161 160 25 26 48 59 51 72 3 13 17 31 30 40 13 8 30 31 38 50 9 20
30 44 49 55 19 11 38 30 44 43 17 36 129 181 152 194 11 7 29 30 40 51 11 21
31 43 45 50 14 6 32 25 41 41 8 17 29 38 45 46 21 11 32 27 40 55 11 39 59
104 139 185 22 23 47 57 55 77 9 19 22 38 30 41 8 3 27 24 41 47 14 22 37 46
50 52 13 6 29 24 36 40 7 16 29 40 50 53 20 14 40 33 44 44 3 10 19 25 36 32
17 6 42 29 56 50 14 21 34 41 44 44 11 4 28 24 39 45 12 24 30 42 49 48 17 6
37 24 46 41 9 17 30 37 49 45 19 8 42 26 52 41 9 14 33 35 53 45 20 10 54 36
76 57 54 51 146 123 158 123 5 0 44 16 86 35 63 28 96 36 188 45 131 12 133
13 197 58 28 19 61 38 75 41 15 4 37 24 50 44 18 28 35 40 65 47 23 6 52 17
66 25 31 18 45 19 58 3z m-4281 -453 c15 -20 42 -45 59 -56 18 -11 41 -40 53
-65 12 -25 35 -63 51 -86 35 -49 38 -82 8 -106 -53 -43 -58 -51 -58 -102 0
-49 2 -53 81 -140 l81 -91 10 -77 c9 -67 14 -82 43 -112 19 -19 43 -55 54 -80
11 -25 34 -59 52 -75 34 -32 68 -97 69 -131 0 -29 72 -135 110 -162 17 -13 40
-45 51 -70 35 -82 144 -201 208 -228 19 -8 45 -23 56 -33 11 -10 46 -31 78
-46 83 -38 76 -69 -25 -113 -52 -23 -63 -37 -72 -104 -4 -26 -15 -56 -24 -68
-16 -19 -19 -19 -39 -5 -20 14 -53 91 -53 124 0 25 -43 80 -73 92 -35 15 -124
123 -132 161 -4 18 -22 39 -52 59 -49 34 -83 82 -83 117 0 33 -26 79 -76 132
-25 27 -59 81 -79 126 -57 127 -106 224 -153 303 -25 40 -57 102 -73 137 -16
34 -33 65 -38 68 -5 4 -21 42 -36 85 -14 44 -32 84 -39 90 -7 6 -21 30 -32 53
-10 24 -33 64 -49 90 -17 25 -41 83 -54 128 -27 92 -22 134 25 190 22 26 32
30 74 30 44 0 52 -4 77 -35z m-342 -330 c14 -28 38 -61 53 -72 17 -12 33 -38
41 -64 7 -24 23 -55 36 -69 16 -18 24 -42 29 -89 6 -68 26 -111 52 -111 8 0
26 -11 39 -25 22 -21 25 -33 25 -93 0 -66 1 -69 39 -106 22 -21 43 -55 51 -79
6 -23 25 -55 40 -72 16 -16 36 -47 44 -67 9 -21 30 -53 46 -72 17 -19 38 -58
46 -88 9 -29 29 -67 44 -84 15 -18 33 -55 40 -83 8 -36 22 -61 47 -84 43 -40
83 -116 83 -158 0 -23 11 -44 41 -76 38 -41 40 -47 38 -100 -2 -51 0 -58 28
-83 35 -31 48 -68 58 -155 4 -38 15 -73 30 -95 26 -39 47 -149 33 -174 -5 -9
-20 -16 -33 -16 -29 0 -46 29 -69 115 -11 42 -23 65 -45 82 -48 37 -119 181
-137 276 -9 45 -31 114 -50 154 -19 41 -34 80 -34 87 0 8 -17 36 -37 63 -24
31 -44 73 -56 118 -10 39 -29 84 -42 101 -13 17 -29 53 -36 80 -6 27 -24 63
-39 79 -15 17 -39 53 -53 80 -14 28 -35 56 -46 63 -22 13 -51 72 -51 103 0 10
-12 31 -26 46 -32 35 -41 56 -64 161 -10 46 -25 91 -33 100 -9 9 -19 35 -22
57 -10 54 -22 74 -62 110 -24 21 -38 46 -48 85 -8 30 -20 57 -27 59 -33 11
-58 51 -58 94 0 82 45 84 85 2z m690 -125 c0 -22 -29 -18 -33 3 -3 14 1 18 15
15 10 -2 18 -10 18 -18z m83 -82 c-6 -18 -28 -21 -28 -4 0 9 7 16 16 16 9 0
14 -5 12 -12z m192 -174 c11 -12 10 -18 -3 -31 -21 -21 -47 -9 -47 22 0 29 29
35 50 9z m5530 -351 c0 -26 -11 -37 -46 -52 -17 -7 -42 -29 -55 -49 -14 -22
-41 -45 -65 -56 -22 -10 -49 -31 -58 -48 -10 -16 -30 -35 -44 -41 -27 -11
-132 -114 -163 -158 -13 -19 -27 -24 -83 -27 -59 -4 -69 -8 -84 -31 -9 -14
-33 -42 -52 -61 -19 -19 -39 -43 -45 -53 -6 -12 -33 -24 -70 -32 -43 -10 -65
-22 -78 -40 -11 -14 -32 -32 -48 -41 -16 -8 -43 -29 -59 -48 -17 -18 -48 -38
-70 -45 -27 -8 -48 -23 -63 -46 -13 -20 -41 -42 -70 -55 -26 -12 -55 -33 -64
-47 -9 -13 -29 -31 -46 -40 -17 -8 -41 -28 -54 -43 -13 -16 -45 -36 -72 -45
-26 -8 -61 -29 -77 -46 -16 -17 -42 -38 -58 -46 -16 -8 -62 -48 -102 -89 -40
-41 -78 -74 -84 -74 -18 0 -120 -102 -140 -141 -10 -20 -31 -44 -45 -53 -14
-9 -30 -27 -36 -39 -6 -13 -23 -31 -39 -42 -16 -11 -37 -35 -47 -53 -10 -18
-33 -42 -50 -52 -27 -16 -33 -26 -33 -53 0 -48 -37 -97 -98 -129 -61 -31 -78
-27 -114 30 -26 42 -19 58 32 72 31 8 46 20 58 43 9 17 31 45 49 62 18 18 36
49 43 75 9 36 30 63 101 135 49 50 96 100 104 113 9 12 21 22 27 22 16 0 83
74 123 136 26 39 42 53 74 62 22 7 61 31 86 52 26 22 52 40 60 40 7 0 24 13
38 29 13 16 41 40 63 54 21 13 50 36 63 51 14 14 43 31 65 37 27 7 55 26 81
54 30 32 50 44 82 50 22 3 49 16 60 27 10 11 39 31 65 44 25 13 56 37 67 53
11 16 38 36 59 44 21 9 46 26 55 40 9 13 41 34 74 47 32 13 69 34 82 47 13 14
37 30 53 35 18 6 34 22 42 43 11 26 29 40 90 69 42 20 76 41 76 45 0 5 18 16
40 25 24 10 45 27 55 46 9 17 31 38 49 47 18 8 41 28 50 44 14 24 64 49 99 49
5 0 27 16 50 35 45 39 97 48 97 18z m-5099 -93 c28 -15 27 -80 -1 -80 -23 0
-53 51 -44 74 7 19 18 20 45 6z m-1952 -107 c20 -72 10 -118 -25 -111 -33 6
-32 148 1 148 8 0 19 -16 24 -37z m2038 -8 c12 -8 25 -29 28 -47 10 -43 26
-68 45 -68 9 0 26 -7 38 -16 17 -12 22 -24 20 -47 -2 -27 -8 -33 -31 -35 -36
-4 -53 10 -61 53 -6 28 -14 38 -41 49 -18 8 -35 22 -38 33 -6 17 -10 70 -8 86
2 12 25 8 48 -8z m-1958 -218 c6 -7 18 -45 26 -83 9 -38 25 -82 36 -97 14 -19
19 -37 15 -53 l-7 -25 -49 42 c-54 45 -70 79 -70 146 0 67 23 100 49 70z
m7676 -293 c20 -8 40 -48 49 -98 4 -22 21 -60 38 -84 38 -55 53 -116 38 -151
-7 -17 -32 -36 -69 -53 -61 -29 -81 -56 -81 -109 0 -75 55 -101 203 -97 92 2
101 1 117 -19 10 -12 21 -46 24 -75 4 -29 18 -71 31 -93 46 -77 62 -110 69
-144 3 -19 17 -57 31 -85 31 -63 50 -154 41 -198 -4 -22 -24 -52 -56 -85 -59
-60 -63 -88 -21 -135 27 -31 30 -32 66 -21 51 16 82 1 97 -49 10 -35 9 -41
-12 -63 -12 -13 -37 -27 -54 -31 -17 -3 -61 -19 -98 -35 -38 -17 -84 -29 -108
-29 -111 0 -295 -164 -292 -260 2 -73 44 -110 128 -110 44 0 54 -4 84 -35 19
-20 52 -40 75 -46 46 -13 329 -12 373 0 46 14 65 -9 77 -92 6 -39 4 -52 -10
-67 -26 -28 -89 -26 -147 5 -54 29 -81 31 -122 10 -27 -14 -32 -14 -68 5 -21
11 -44 20 -51 20 -7 0 -34 -21 -60 -48 -51 -52 -67 -100 -59 -179 6 -59 36
-86 114 -103 73 -15 110 -16 155 -6 26 7 35 4 52 -15 74 -84 70 -81 109 -75
78 11 134 -33 108 -85 -29 -59 -191 -98 -269 -65 -40 16 -42 20 -52 79 -5 33
-27 51 -37 29 -1 -4 -23 -23 -48 -42 -24 -19 -58 -47 -75 -63 -36 -32 -123
-67 -169 -67 -18 0 -60 -13 -92 -30 -57 -28 -64 -29 -199 -30 -347 -1 -369 6
-348 110 3 20 22 47 45 69 64 59 81 102 82 206 1 86 3 92 37 141 34 48 37 61
52 185 9 74 19 163 22 199 3 36 10 99 15 140 5 41 9 116 10 166 0 77 3 95 21
118 20 26 23 26 122 24 125 -4 144 5 237 113 46 53 69 90 78 122 17 66 15 133
-5 164 -17 25 -19 25 -95 19 -42 -4 -84 -9 -91 -12 -8 -3 -28 7 -45 21 -44 37
-62 103 -55 197 6 78 -10 156 -47 229 -13 25 -21 68 -25 140 -3 57 -11 128
-16 157 -7 35 -7 69 0 105 5 28 13 74 16 102 9 66 44 133 94 178 45 41 43 40
66 31z m-7500 -114 c0 -22 -29 -18 -33 3 -3 14 1 18 15 15 10 -2 18 -10 18
-18z m103 -215 c15 -46 2 -71 -29 -54 -19 10 -24 36 -13 77 9 32 27 22 42 -23z
m97 -133 c7 -26 17 -34 48 -43 43 -11 63 -43 53 -83 -9 -38 -45 -44 -73 -12
-13 15 -23 38 -23 51 0 13 -7 30 -16 37 -43 35 -54 50 -54 69 0 16 5 20 28 17
21 -2 29 -10 37 -36z m161 -220 c6 -4 19 -21 28 -39 9 -18 32 -40 51 -49 39
-18 125 -125 125 -156 0 -28 18 -58 35 -58 23 0 67 -74 63 -107 -7 -60 -81
-33 -94 33 -4 20 -23 52 -49 79 -24 25 -47 54 -50 65 -4 11 -19 27 -35 35 -20
10 -33 28 -41 55 -8 28 -22 46 -46 60 -25 15 -33 26 -33 49 0 25 9 37 30 40 3
0 10 -3 16 -7z m474 -547 c25 -30 -9 -153 -43 -155 -27 -1 -49 134 -25 158 17
17 53 15 68 -3z m-2502 -1085 c12 -12 22 -25 22 -30 0 -5 16 -34 35 -65 27
-42 41 -55 60 -55 14 0 46 -18 75 -42 65 -54 190 -179 190 -190 0 -4 19 -17
43 -29 23 -12 55 -32 70 -45 16 -13 36 -24 44 -24 46 0 157 -44 192 -76 24
-21 49 -34 66 -34 15 0 59 -8 97 -17 65 -16 75 -16 155 0 84 16 89 16 178 -5
118 -27 140 -42 131 -92 -6 -29 -17 -44 -56 -72 -54 -38 -60 -49 -60 -103 0
-25 -9 -50 -28 -77 -16 -21 -35 -60 -42 -86 -7 -26 -20 -54 -30 -63 -20 -18
-10 -24 -127 88 -18 17 -33 36 -33 42 0 28 -55 88 -96 106 -53 22 -65 33 -85
74 -11 24 -27 34 -74 50 -33 11 -82 31 -108 44 l-48 23 -28 -26 c-30 -29 -51
-32 -84 -13 -12 6 -75 15 -142 18 -66 3 -134 11 -151 19 -29 13 -33 11 -72
-19 -43 -35 -58 -34 -73 6 -13 35 12 79 50 88 43 9 54 26 40 61 -6 16 -12 83
-14 149 -3 177 -30 234 -141 307 -45 29 -56 51 -43 86 11 29 57 30 87 2z
m8558 -1010 c31 -18 79 -35 116 -41 81 -13 207 -71 250 -116 18 -19 56 -46 83
-60 28 -14 62 -36 76 -49 14 -14 52 -32 85 -41 32 -9 70 -24 84 -33 14 -9 43
-24 65 -33 22 -10 51 -34 64 -53 14 -20 42 -44 64 -55 27 -14 44 -33 57 -62
l19 -42 70 0 c89 0 109 -16 95 -71 -5 -22 -21 -46 -37 -58 l-28 -21 -45 48
c-25 26 -50 47 -55 47 -5 0 -32 -11 -60 -25 -41 -21 -54 -35 -75 -80 -44 -93
-61 -87 -164 58 -40 58 -85 112 -99 120 -15 9 -41 30 -59 46 -18 17 -38 31
-44 31 -17 0 -190 90 -213 110 -39 35 -187 119 -256 145 -38 15 -79 35 -90 44
-21 17 -21 20 -8 69 12 49 11 54 -9 82 -25 34 -27 41 -10 58 20 20 68 13 124
-18z m-7935 -79 c13 -10 48 -30 77 -45 28 -14 52 -32 52 -40 0 -24 -51 -48
-124 -57 -110 -14 -133 -25 -158 -72 -11 -23 -40 -64 -64 -91 -47 -51 -53 -77
-33 -134 7 -20 26 -40 55 -57 24 -14 44 -29 45 -33 0 -4 2 -15 4 -25 6 -32
-22 -106 -54 -142 -17 -19 -40 -58 -52 -85 -17 -40 -26 -50 -45 -50 -28 0 -49
30 -58 82 -5 28 -18 46 -46 70 -45 36 -50 62 -20 101 39 49 49 90 49 196 -1
84 3 109 21 146 28 57 137 158 207 190 30 13 66 34 80 45 32 25 34 25 64 1z
m291 -81 c44 -29 46 -30 81 -15 20 8 45 15 56 15 11 0 26 7 35 15 17 18 46 20
46 4 0 -6 -14 -23 -31 -38 -17 -14 -42 -36 -55 -48 -13 -12 -24 -20 -24 -17 0
2 -11 -3 -26 -12 -24 -16 -26 -16 -52 3 -15 11 -48 23 -75 27 -28 4 -59 18
-78 33 l-30 26 28 18 c40 27 73 24 125 -11z m7387 -324 c12 -18 29 -73 39
-122 11 -49 29 -107 41 -130 19 -37 21 -56 22 -205 0 -183 13 -265 52 -331 14
-24 28 -60 31 -81 3 -20 9 -53 12 -73 3 -22 20 -52 43 -77 58 -65 76 -95 111
-187 18 -47 45 -101 60 -120 48 -64 100 -169 100 -205 0 -19 5 -55 12 -79 15
-58 -1 -103 -31 -86 -11 5 -27 29 -36 53 -17 44 -112 137 -140 137 -31 0 -104
-43 -143 -85 -24 -25 -47 -45 -52 -45 -6 0 -29 -27 -53 -60 -25 -33 -63 -74
-86 -90 -45 -33 -53 -62 -27 -103 13 -20 10 -32 -26 -121 -33 -82 -38 -103
-29 -122 6 -13 17 -24 24 -24 7 0 24 -11 37 -25 36 -38 18 -58 -58 -67 -59 -6
-101 -21 -113 -40 -3 -5 -4 -41 -1 -79 6 -90 -4 -103 -73 -95 -52 6 -85 31
-85 65 0 10 -6 25 -13 35 -13 17 -15 15 -32 -20 -9 -22 -29 -49 -44 -62 l-26
-22 33 -28 c17 -16 32 -35 32 -43 0 -27 -65 -76 -111 -83 -49 -8 -89 -30 -89
-49 0 -7 -8 -31 -19 -53 -10 -21 -30 -64 -45 -95 -25 -53 -29 -57 -81 -74 -35
-11 -62 -26 -74 -43 -11 -15 -48 -57 -83 -93 -42 -42 -78 -92 -102 -140 -68
-133 -184 -228 -299 -245 -44 -6 -50 -4 -100 34 -28 22 -92 58 -142 80 l-90
40 -85 -8 c-219 -21 -276 -21 -300 -2 -19 15 -21 24 -16 59 8 45 38 82 203
248 63 64 112 124 129 157 26 51 62 96 133 162 18 17 44 51 56 76 13 25 35 60
49 79 14 19 33 59 42 90 8 30 33 80 55 110 21 30 39 58 39 63 0 5 19 38 42 75
26 41 44 84 49 116 5 27 20 67 34 88 14 22 34 63 45 91 11 29 33 68 50 86 16
19 36 58 45 87 11 40 25 61 54 84 30 24 42 42 51 80 6 27 22 58 34 70 22 21
25 21 100 6 53 -10 84 -11 96 -5 10 6 30 35 45 66 19 39 31 54 43 52 22 -4
102 -123 102 -151 -1 -12 -7 -33 -15 -47 -32 -56 -5 -197 46 -244 29 -25 37
-28 88 -24 77 6 117 29 181 104 63 75 83 122 75 179 -6 43 3 88 59 295 31 114
38 157 43 280 9 200 9 242 1 344 -7 75 -13 96 -39 137 -54 84 -67 284 -25 374
53 114 107 144 145 81z m1157 -452 c21 -44 24 -57 14 -69 -17 -21 -40 -19 -67
7 -18 17 -23 32 -23 73 0 50 1 52 25 47 18 -3 32 -19 51 -58z m-5777 -955 c30
-7 61 -25 98 -59 30 -28 59 -50 63 -50 5 0 14 -17 21 -38 13 -43 2 -96 -31
-149 -24 -41 -49 -42 -124 -8 -83 38 -102 33 -139 -40 -19 -38 -120 -118 -179
-144 -61 -26 -133 -110 -155 -181 -18 -60 -22 -158 -10 -233 7 -40 18 -57 63
-102 60 -61 85 -67 121 -33 18 17 41 24 94 29 51 4 76 12 92 28 27 25 52 27
61 6 3 -8 2 -15 -3 -15 -5 0 -14 -13 -21 -30 -9 -21 -29 -38 -71 -59 -37 -18
-85 -56 -128 -100 l-69 -71 18 -52 c41 -120 59 -203 53 -248 -4 -36 -1 -54 16
-80 11 -19 21 -47 21 -62 0 -67 -61 -261 -101 -321 -36 -54 -63 -179 -54 -249
6 -53 -16 -123 -46 -138 -28 -16 -89 -12 -89 4 0 8 5 18 10 21 13 8 13 115 0
135 -7 11 -26 14 -77 13 -37 -2 -75 1 -83 6 -18 12 -16 14 35 32 30 11 45 24
60 55 11 22 30 53 43 69 32 40 31 122 -2 162 -34 41 -46 68 -46 102 0 22 -13
45 -45 81 -25 28 -56 73 -70 100 -21 41 -23 53 -14 80 16 45 1 57 -49 42 -22
-7 -52 -12 -68 -12 -16 0 -50 -11 -76 -25 -26 -14 -54 -25 -61 -25 -8 0 -37
-15 -63 -33 -27 -19 -66 -37 -87 -41 -38 -7 -56 -21 -89 -69 -9 -13 -30 -28
-45 -32 -15 -3 -40 -20 -55 -36 -24 -26 -34 -30 -70 -27 -59 4 -62 29 -8 63
23 14 50 41 61 59 11 19 34 40 52 47 18 7 47 29 65 48 30 33 37 36 92 36 32 0
60 2 62 5 2 3 10 18 18 35 9 16 33 40 55 52 22 12 49 35 60 51 11 16 28 40 38
54 13 18 19 56 25 151 6 111 5 132 -10 161 -21 41 -39 48 -97 38 -39 -6 -46
-12 -56 -41 -13 -38 -48 -71 -77 -71 -35 0 -56 -19 -91 -82 -20 -35 -45 -69
-56 -76 -11 -6 -28 -28 -36 -48 -18 -43 -110 -138 -143 -149 -12 -3 -28 -21
-36 -38 -18 -44 -38 -58 -83 -60 l-38 -2 4 40 c4 52 15 71 51 90 17 9 30 20
30 26 0 6 25 35 55 65 30 30 55 59 55 64 0 4 16 18 34 30 29 18 36 28 42 68 8
61 26 89 62 97 16 3 44 21 62 40 25 26 45 36 97 45 50 10 66 17 73 34 4 11 21
33 36 48 16 15 52 53 79 83 28 31 89 96 138 145 79 81 87 93 87 128 0 21 7 64
15 96 12 46 13 71 5 114 -15 84 -13 137 8 162 17 21 22 22 52 12 42 -15 233
-14 285 1 36 11 43 19 75 84 48 100 92 119 209 92z m-791 -115 c36 -10 26 -40
-29 -84 -58 -46 -64 -47 -79 -21 -37 70 23 127 108 105z m-566 -174 c15 -18
17 -39 16 -128 -2 -59 1 -117 5 -129 13 -35 85 -42 190 -17 38 9 35 -5 -20
-92 -42 -65 -54 -76 -95 -90 -57 -19 -91 -56 -130 -144 -57 -128 -70 -150 -95
-156 -36 -9 -50 11 -63 88 -20 115 -26 118 -213 118 -110 0 -168 4 -206 16
-105 31 -167 75 -190 134 -86 219 -100 291 -65 317 24 17 46 16 88 -4 27 -12
43 -32 67 -81 33 -65 43 -74 116 -92 23 -6 56 -22 72 -36 48 -40 86 -41 156
-4 125 67 167 121 189 242 4 21 19 50 33 64 23 23 32 26 76 21 36 -3 56 -11
69 -27z m453 -32 c0 -52 -4 -61 -32 -86 -17 -16 -38 -43 -47 -60 -21 -41 -63
-72 -97 -72 -27 0 -29 3 -29 38 0 67 18 109 56 131 20 12 41 36 49 55 17 41
40 57 75 53 24 -2 25 -5 25 -59z m-1901 -20 c7 -7 20 -25 30 -41 24 -36 9 -73
-42 -106 -20 -13 -50 -33 -65 -43 -42 -29 -71 -21 -75 21 -7 70 6 99 61 140
56 43 72 48 91 29z m1234 -795 c-4 -22 -22 -20 -26 1 -2 10 3 16 13 16 10 0
15 -7 13 -17z m-61 -69 c10 -27 -14 -64 -42 -64 -31 0 -42 23 -27 56 13 28 59
34 69 8z m3478 -1509 c40 -39 30 -127 -19 -186 -17 -20 -26 -43 -26 -64 0 -52
-29 -176 -50 -215 -10 -19 -30 -58 -44 -85 -14 -28 -39 -64 -55 -79 -17 -16
-33 -42 -36 -58 -4 -16 -20 -44 -36 -63 -16 -18 -40 -57 -54 -87 -14 -30 -37
-65 -51 -79 -14 -13 -39 -50 -55 -81 -16 -31 -33 -59 -38 -63 -6 -3 -22 -27
-36 -54 -14 -26 -39 -55 -55 -65 -20 -11 -33 -30 -40 -56 -6 -22 -26 -54 -44
-72 -49 -48 -121 -140 -146 -184 -20 -39 -55 -87 -125 -174 -20 -25 -46 -61
-59 -80 -19 -30 -27 -35 -61 -35 -39 0 -40 1 -43 40 -6 65 7 104 47 148 21 23
43 57 50 76 6 19 22 48 35 65 12 17 31 46 40 64 10 19 53 70 97 115 43 44 79
84 79 89 0 5 18 28 40 52 22 24 47 60 55 80 9 20 30 53 49 74 18 20 41 51 50
69 9 17 25 38 37 47 13 9 26 35 34 71 14 59 35 90 66 100 10 3 24 26 33 53 9
25 29 60 45 77 17 17 36 55 46 89 10 33 33 81 52 107 30 42 35 59 44 141 13
128 15 136 48 152 15 8 34 29 41 46 12 28 34 49 53 50 4 0 19 -11 32 -25z
m-1101 -563 c6 -10 -4 -24 -29 -38 -11 -6 -26 -23 -33 -37 -7 -15 -34 -39 -60
-54 -26 -15 -58 -41 -71 -56 -14 -16 -43 -37 -65 -47 -23 -9 -60 -35 -83 -56
-87 -81 -143 -122 -190 -139 -26 -9 -77 -30 -113 -46 -117 -51 -184 -48 -164
8 7 20 22 32 52 43 23 9 49 23 57 30 9 8 29 29 47 45 17 17 50 49 72 71 35 34
51 43 94 49 39 5 65 17 101 45 26 21 70 50 97 64 27 15 63 35 79 45 27 17 83
29 143 30 13 1 21 5 17 10 -6 10 21 41 35 41 5 0 11 -4 14 -8z"/>
<path d="M10654 15038 c-60 -47 -66 -54 -89 -99 -13 -25 -35 -50 -49 -57 -14
-6 -32 -27 -40 -45 -7 -19 -27 -44 -44 -56 -18 -12 -33 -34 -37 -53 -4 -17
-26 -52 -50 -77 -23 -25 -49 -58 -56 -73 -8 -15 -33 -39 -55 -55 -23 -15 -66
-56 -96 -91 -30 -34 -64 -69 -76 -78 -12 -8 -29 -31 -37 -50 -8 -19 -19 -34
-25 -34 -7 0 -35 -23 -63 -50 -29 -28 -62 -60 -74 -72 -13 -12 -23 -29 -23
-39 0 -10 -11 -26 -24 -36 -13 -10 -31 -34 -41 -53 -10 -19 -28 -44 -40 -55
-13 -11 -39 -46 -59 -77 -20 -32 -45 -62 -55 -68 -11 -5 -30 -28 -42 -49 -12
-22 -30 -42 -40 -44 -10 -3 -28 -21 -40 -41 -12 -20 -35 -44 -51 -52 -16 -8
-34 -26 -40 -40 -6 -13 -26 -33 -44 -44 -18 -12 -39 -37 -48 -59 -8 -22 -24
-45 -35 -53 -10 -7 -29 -31 -42 -53 -12 -22 -41 -60 -65 -85 -23 -25 -59 -63
-79 -85 -21 -22 -44 -54 -51 -70 -7 -17 -22 -39 -34 -50 -12 -11 -33 -42 -46
-69 -13 -27 -32 -55 -43 -62 -11 -8 -29 -31 -42 -51 -12 -21 -39 -54 -61 -74
-25 -25 -38 -45 -38 -63 0 -34 -21 -74 -54 -105 -14 -13 -30 -39 -36 -57 -6
-18 -27 -44 -46 -59 -19 -15 -34 -35 -34 -47 0 -26 -35 -84 -56 -92 -8 -3 -26
-30 -39 -60 -13 -30 -34 -60 -45 -66 -12 -7 -29 -28 -39 -48 -9 -20 -47 -68
-84 -107 -37 -38 -78 -83 -91 -100 -13 -16 -40 -46 -59 -66 -20 -21 -41 -55
-48 -80 -6 -24 -20 -52 -31 -61 -20 -18 -57 -94 -58 -119 0 -8 -12 -26 -26
-40 -14 -13 -33 -37 -41 -54 -9 -16 -35 -51 -59 -76 -24 -27 -47 -64 -54 -87
-6 -23 -22 -54 -36 -71 -13 -16 -34 -56 -45 -87 -10 -32 -30 -70 -44 -84 -14
-14 -34 -52 -45 -85 -14 -40 -31 -68 -55 -87 -18 -16 -36 -36 -39 -46 -3 -9
-19 -24 -35 -33 -19 -11 -34 -32 -44 -64 -9 -26 -32 -64 -51 -85 -19 -21 -39
-55 -45 -76 -6 -20 -24 -51 -40 -68 -102 -107 -141 -166 -141 -213 0 -10 -14
-34 -31 -53 -16 -19 -42 -59 -56 -87 -14 -29 -29 -53 -33 -53 -17 0 -58 -53
-64 -81 -3 -17 -19 -43 -35 -60 -16 -16 -37 -48 -46 -71 -10 -27 -29 -51 -51
-66 -22 -15 -37 -33 -41 -53 -3 -18 -19 -40 -39 -55 -18 -14 -38 -41 -44 -59
-6 -19 -24 -45 -40 -58 -16 -14 -41 -47 -56 -75 -15 -27 -37 -55 -50 -61 -13
-5 -30 -23 -38 -39 -8 -16 -31 -41 -50 -56 -20 -15 -36 -36 -36 -47 0 -31 -29
-91 -58 -122 -24 -26 -27 -37 -30 -116 -3 -62 1 -98 12 -124 14 -35 17 -37 61
-37 25 0 60 7 77 16 18 9 59 20 92 25 34 4 99 15 146 23 47 9 129 16 182 16
81 0 109 5 165 26 47 18 108 30 200 39 77 8 145 20 163 29 16 9 42 22 58 30
15 7 97 21 182 30 307 32 356 39 401 57 26 10 83 23 128 29 84 11 154 32 178
52 8 6 48 13 91 15 42 2 136 10 207 18 216 24 354 38 465 45 64 4 133 15 179
29 87 28 169 25 210 -8 52 -42 136 -80 154 -70 32 18 38 45 21 89 -10 26 -14
54 -11 78 6 35 4 38 -44 71 -56 38 -72 66 -63 110 7 33 -20 64 -76 88 -41 18
-66 45 -86 92 -16 38 -58 81 -78 81 -8 0 -36 15 -63 34 -50 34 -91 52 -108 47
-40 -12 -69 -9 -120 13 -31 14 -66 25 -78 25 -49 -3 -143 15 -159 29 -10 8
-18 27 -18 42 0 15 -9 35 -20 45 -18 17 -21 17 -45 1 -15 -10 -25 -26 -25 -40
0 -47 -9 -56 -57 -56 -51 0 -123 19 -123 32 0 16 -52 8 -82 -13 -25 -18 -38
-21 -84 -15 -39 4 -65 2 -91 -9 -23 -10 -63 -15 -103 -14 -36 0 -77 -4 -91 -9
-15 -6 -29 -9 -32 -6 -2 2 -42 -9 -88 -25 -47 -17 -105 -33 -129 -37 -25 -3
-67 -12 -94 -20 -27 -8 -70 -14 -95 -14 -44 0 -48 -3 -85 -56 -22 -30 -49 -56
-60 -59 -49 -10 -146 -12 -146 -3 0 5 5 6 10 3 6 -4 10 8 10 29 0 19 5 38 10
41 6 3 10 13 10 22 0 9 6 24 14 32 8 9 33 49 56 90 23 41 64 105 91 142 27 37
59 89 71 115 11 27 42 71 68 99 50 53 67 81 98 161 10 27 35 71 56 98 20 27
43 63 50 80 20 47 160 241 231 320 32 34 52 78 60 130 5 30 22 55 75 111 52
55 72 85 84 124 8 29 31 70 50 92 40 47 105 165 123 224 8 24 36 65 71 101 32
34 73 91 91 127 18 36 51 82 73 103 22 22 51 59 64 84 13 25 49 77 80 115 30
39 66 93 79 120 12 28 34 62 48 76 13 14 28 36 32 48 8 27 136 158 156 161 56
8 67 -18 45 -102 -19 -75 -41 -114 -92 -170 -24 -26 -54 -71 -68 -100 -13 -29
-37 -66 -55 -82 -17 -17 -31 -34 -31 -39 0 -5 -11 -22 -25 -39 -16 -19 -25
-42 -25 -64 0 -49 -23 -97 -64 -135 -41 -37 -77 -106 -101 -194 -9 -33 -36
-103 -60 -155 -41 -87 -43 -98 -35 -137 11 -46 3 -79 -30 -121 -28 -35 -28
-166 1 -248 13 -37 24 -103 29 -179 10 -140 7 -120 25 -139 18 -17 92 -12 111
7 6 7 16 38 23 71 8 43 20 68 46 97 19 22 35 46 35 54 0 18 30 75 64 122 16
22 26 53 31 98 5 52 13 73 34 98 16 18 36 57 46 87 9 30 30 74 46 97 17 24 39
64 51 90 11 27 33 62 48 78 17 19 31 51 40 90 9 42 22 71 45 96 21 24 35 52
40 80 6 33 17 53 45 79 22 21 43 52 50 77 7 23 22 52 34 65 38 40 56 73 56
105 0 46 17 84 51 113 26 22 32 37 45 115 13 71 22 96 44 121 16 19 31 50 35
76 4 24 17 57 30 73 34 47 52 85 65 148 8 32 24 69 36 83 35 37 42 54 50 123
5 48 13 71 34 95 36 42 60 89 60 121 0 33 15 62 51 97 17 17 30 44 34 70 7 41
35 98 62 126 7 7 15 25 19 40 20 97 28 120 53 147 25 27 37 59 55 146 3 14 19
43 36 64 30 38 39 63 60 167 6 31 21 69 32 84 12 14 29 60 39 102 12 50 28 88
49 114 21 26 34 56 40 94 13 81 19 96 51 129 31 34 53 132 38 172 -12 32 -75
32 -115 1z"/>
<path d="M12352 11649 c-24 -4 -58 -17 -75 -28 -18 -11 -70 -29 -117 -42 -47
-12 -103 -34 -126 -50 -31 -21 -61 -30 -123 -38 -45 -6 -109 -21 -144 -35 -81
-31 -86 -33 -192 -51 -79 -14 -94 -20 -121 -49 -30 -32 -51 -40 -162 -61 -18
-4 -52 -24 -77 -45 -24 -20 -56 -41 -72 -44 -35 -10 -55 -25 -46 -39 4 -6 0
-8 -10 -4 -9 3 -23 -1 -31 -9 -9 -8 -31 -21 -50 -29 -44 -19 -52 -31 -23 -39
35 -9 57 -7 93 10 32 15 33 18 17 29 -28 21 -9 27 38 15 61 -16 85 -42 105
-116 14 -52 15 -68 5 -92 -12 -28 -47 -52 -75 -52 -18 0 -53 -40 -70 -80 -8
-20 -31 -51 -52 -70 -76 -70 -100 -98 -124 -146 -13 -27 -43 -76 -66 -109 -69
-99 -152 -281 -159 -350 -5 -39 -18 -79 -38 -115 -17 -30 -42 -86 -54 -125
-13 -38 -27 -84 -33 -101 -5 -17 -10 -39 -10 -50 0 -30 -37 -125 -58 -148 -77
-84 -92 -103 -97 -126 -4 -14 -24 -53 -46 -88 -21 -35 -39 -74 -39 -87 0 -26
-27 -49 -70 -58 -32 -8 -56 -60 -63 -134 -3 -44 -14 -67 -66 -142 -33 -50 -61
-95 -61 -101 0 -12 -22 -61 -93 -210 -25 -54 -43 -107 -47 -145 -8 -69 -18
-97 -54 -144 -14 -19 -26 -42 -26 -52 0 -32 -31 -90 -53 -98 -29 -11 -47 0
-66 40 -10 20 -24 35 -36 36 -11 1 -29 5 -40 8 -25 8 -36 -11 -60 -105 -9 -36
-29 -83 -43 -104 -26 -38 -27 -45 -35 -250 -5 -116 -8 -281 -7 -366 1 -183 7
-200 71 -200 59 0 93 22 128 85 18 31 38 58 47 62 8 3 26 26 41 52 14 25 39
58 55 73 16 15 31 41 34 58 4 17 19 39 34 50 28 20 93 119 140 210 14 27 35
57 48 65 12 9 29 30 38 46 8 17 30 47 49 68 19 21 43 58 54 83 11 25 28 52 39
59 10 8 33 41 50 74 16 33 39 69 51 79 12 11 28 41 36 68 8 28 28 65 45 85 17
19 38 52 47 74 9 24 27 46 43 54 29 15 33 26 46 119 5 36 15 57 34 75 15 14
38 49 50 77 12 29 35 64 51 80 16 15 34 45 39 66 6 21 28 58 50 83 22 25 44
63 50 84 5 21 17 45 26 52 9 7 29 36 45 65 16 28 47 65 69 82 23 19 43 46 48
65 5 19 36 69 69 113 33 43 71 100 83 126 13 26 32 50 42 54 30 9 78 54 78 73
0 10 10 26 21 37 12 10 30 39 41 63 10 25 39 66 64 93 24 26 44 51 44 55 0 4
18 28 40 52 22 24 40 48 40 54 0 5 18 27 40 47 22 20 40 46 40 57 0 34 29 91
49 98 18 5 51 60 51 83 0 5 12 20 26 33 14 13 38 50 54 82 15 31 39 66 53 77
14 11 31 36 37 54 7 22 24 42 45 54 22 13 35 31 40 51 7 32 70 115 143 188 23
23 42 52 42 63 0 32 28 91 55 116 13 12 30 43 36 68 6 26 25 61 42 79 16 18
39 51 49 75 13 29 30 48 57 62 44 22 64 60 63 122 -1 71 -40 89 -150 67z"/>
<path d="M9858 10760 c-45 -3 -75 -12 -95 -26 -37 -27 -72 -39 -165 -59 -42
-9 -82 -23 -88 -31 -7 -7 -16 -14 -21 -14 -5 0 -55 -20 -112 -44 -56 -24 -129
-49 -162 -57 -33 -7 -79 -21 -103 -31 -24 -10 -68 -18 -98 -18 -47 0 -54 -2
-54 -20 0 -11 4 -20 9 -20 5 0 12 -16 15 -35 10 -51 49 -78 101 -69 53 10 186
7 366 -8 l146 -11 92 72 c50 41 91 76 91 80 0 3 18 17 41 31 37 23 149 154
149 175 0 5 15 21 33 36 17 15 29 31 24 35 -12 12 -96 19 -169 14z"/>
<path d="M9876 9333 c-12 -12 -6 -43 9 -43 8 0 15 9 15 19 0 21 -13 34 -24 24z"/>
<path d="M9780 8420 c0 -11 5 -20 10 -20 6 0 10 9 10 20 0 11 -4 20 -10 20 -5
0 -10 -9 -10 -20z"/>
<path d="M12207 8310 c-55 -10 -62 -21 -61 -103 1 -75 23 -140 49 -151 8 -3
32 -34 54 -69 51 -80 94 -107 140 -87 38 15 81 64 81 91 0 11 -12 43 -26 71
-15 29 -38 82 -51 118 -26 70 -52 103 -95 126 -29 15 -34 15 -91 4z"/>
<path d="M12700 7902 c0 -26 11 -34 27 -21 20 17 16 39 -7 39 -13 0 -20 -7
-20 -18z"/>
<path d="M12414 7654 c-63 -42 -104 -86 -104 -111 0 -36 25 -89 51 -107 35
-24 105 -21 119 5 22 39 10 183 -18 227 -7 10 -18 6 -48 -14z"/>
<path d="M8049 7013 c-6 -15 -18 -42 -26 -60 -18 -36 -11 -53 21 -53 38 0 58
31 54 86 -4 59 -31 74 -49 27z"/>
<path d="M8333 2905 c-30 -13 -31 -16 -38 -89 -6 -60 -4 -81 8 -99 8 -13 22
-48 31 -77 9 -29 24 -67 34 -84 10 -18 22 -43 25 -56 4 -14 35 -51 71 -82 l65
-58 708 0 c495 -1 718 2 738 10 16 6 49 28 74 48 24 20 49 40 54 43 13 9 36
142 36 209 0 75 -18 122 -52 138 -15 7 -62 17 -105 21 -54 6 -98 18 -147 41
-66 30 -75 32 -145 26 -41 -3 -106 -15 -145 -26 -102 -29 -217 -27 -270 5 -46
29 -111 32 -225 13 -57 -10 -77 -10 -107 2 -67 24 -125 28 -218 14 -106 -16
-176 -17 -242 -5 -96 19 -118 20 -150 6z m300 -254 c14 -5 37 -22 51 -36 15
-15 33 -25 40 -22 7 3 47 11 89 17 77 13 77 13 117 -15 39 -27 41 -27 115 -16
102 15 144 14 180 -5 18 -9 43 -14 62 -11 23 4 33 1 37 -10 8 -20 15 -16 -74
-36 -102 -23 -130 -26 -208 -17 -37 4 -93 3 -124 -2 -41 -7 -80 -6 -135 3 -43
7 -119 13 -170 13 -50 1 -94 4 -98 8 -4 4 -10 27 -12 50 -6 50 6 66 60 78 45
11 43 11 70 1z"/>
<path d="M18460 12169 c-48 -31 -68 -69 -69 -129 -1 -30 8 -43 74 -106 41 -40
85 -76 97 -80 13 -4 33 -15 46 -25 13 -10 48 -25 77 -34 30 -8 67 -26 83 -40
17 -14 39 -25 51 -25 20 0 21 4 21 159 l0 158 -44 5 c-24 3 -58 15 -75 28 -18
12 -48 26 -68 32 -20 5 -54 27 -76 49 -22 21 -47 39 -56 38 -9 0 -36 -14 -61
-30z"/>
<path d="M18195 11749 c-61 -23 -92 -52 -121 -114 -44 -92 -23 -163 54 -185
35 -11 127 -5 268 16 29 4 55 0 90 -14 127 -50 161 -61 192 -60 66 2 53 -28
-17 -37 -23 -3 -46 -7 -50 -10 -4 -2 -50 -5 -102 -6 -73 -2 -102 2 -128 16
-29 15 -40 16 -67 6 -17 -6 -62 -14 -100 -16 -37 -3 -95 -13 -128 -21 -35 -10
-105 -17 -162 -18 l-101 -1 -48 38 c-27 20 -52 37 -56 37 -5 0 -43 -11 -85
-25 -43 -14 -102 -28 -133 -31 -31 -3 -77 -12 -103 -21 -27 -8 -61 -12 -77 -8
-21 4 -53 -5 -122 -34 -78 -33 -102 -50 -141 -93 -40 -46 -47 -60 -52 -108 -2
-30 -8 -71 -11 -91 -7 -36 -6 -38 53 -77 44 -30 82 -46 148 -62 84 -19 104
-28 166 -72 16 -12 53 -20 104 -25 72 -6 82 -9 113 -40 46 -46 63 -53 113 -52
51 2 84 -13 93 -41 4 -11 18 -26 33 -34 26 -13 181 -60 234 -70 16 -4 39 -24
62 -55 35 -50 41 -53 139 -75 27 -7 50 -26 90 -75 15 -19 25 -22 51 -17 41 8
92 -9 134 -46 18 -15 36 -28 40 -28 4 0 30 -20 57 -45 28 -24 59 -47 70 -51
11 -3 38 -26 61 -50 24 -26 50 -44 62 -44 l22 0 0 770 c0 768 0 770 -20 770
-25 0 -92 33 -109 54 -7 9 -29 25 -48 37 l-35 22 -38 -22 c-64 -36 -97 -27
-143 39 -11 16 -31 25 -68 31 -29 5 -61 17 -73 27 -31 29 -58 31 -111 11z"/>
<path d="M2153 10978 c-63 -70 -57 -147 13 -164 42 -11 112 5 129 29 18 25 20
76 4 111 -22 47 -112 61 -146 24z"/>
<path d="M3022 5790 c-12 -5 -39 -21 -59 -35 -40 -27 -78 -32 -116 -14 -22 10
-31 5 -86 -38 -34 -26 -79 -60 -101 -76 -25 -18 -43 -41 -50 -65 -7 -20 -25
-50 -40 -67 -28 -29 -60 -125 -60 -176 0 -36 30 -108 69 -169 28 -41 47 -59
81 -73 l45 -19 57 35 c71 43 168 142 168 172 0 38 21 83 46 99 13 9 32 33 43
54 10 20 33 47 50 60 17 12 31 29 31 36 0 8 20 36 44 62 68 77 69 105 4 177
-37 41 -84 55 -126 37z"/>
<path d="M16779 4068 c-83 -66 -217 -208 -239 -253 -15 -31 -18 -53 -14 -95 7
-67 21 -107 40 -114 8 -3 26 -29 38 -58 13 -29 36 -66 51 -82 21 -23 26 -36
22 -65 -2 -23 5 -60 20 -101 14 -36 24 -66 24 -67 -1 -2 -1 -24 -1 -49 0 -38
5 -50 31 -73 27 -25 32 -38 40 -102 4 -41 8 -77 9 -81 0 -5 17 -26 39 -48 24
-25 43 -56 50 -84 6 -26 28 -64 51 -91 36 -42 40 -52 40 -100 0 -50 3 -58 45
-105 25 -28 45 -55 45 -61 0 -6 16 -34 35 -63 19 -30 44 -79 55 -111 11 -31
33 -72 50 -91 16 -19 36 -47 44 -62 8 -15 28 -35 43 -46 16 -10 36 -31 45 -47
11 -19 44 -41 104 -70 l88 -42 42 23 c28 14 50 36 65 65 13 24 39 53 61 66 21
13 45 38 53 55 8 17 25 36 39 42 14 6 42 26 63 45 21 19 61 46 90 61 37 18 59
38 77 69 28 48 144 148 198 170 20 9 44 28 54 44 10 15 35 47 56 70 21 24 38
52 38 63 0 32 28 92 57 122 36 38 59 163 42 227 -6 26 -22 57 -34 71 -34 37
-45 65 -45 107 0 28 -11 54 -40 97 -25 37 -40 70 -40 90 0 17 -26 83 -60 153
-58 118 -63 124 -111 148 -27 14 -52 32 -56 40 -3 8 -15 15 -27 15 -43 0 -122
30 -146 54 -24 26 -85 50 -157 61 -24 4 -45 11 -48 16 -3 4 -25 14 -48 20 -23
6 -66 22 -95 35 -29 13 -64 24 -77 24 -13 0 -48 9 -77 19 -29 11 -86 24 -127
30 -46 6 -96 21 -130 38 -50 25 -61 28 -101 20 -39 -8 -57 -5 -118 17 -40 14
-79 26 -87 26 -7 0 -37 -19 -66 -42z"/>
<path d="M495 3394 c-66 -17 -104 -22 -142 -17 -48 5 -55 3 -88 -26 -20 -17
-40 -31 -45 -31 -12 0 -39 27 -60 59 -22 32 -50 22 -79 -30 -16 -28 -31 -42
-52 -46 -26 -5 -29 -9 -29 -44 0 -31 4 -39 18 -39 34 0 52 -24 59 -77 7 -63
-13 -103 -52 -103 l-25 0 0 -310 c0 -262 2 -310 14 -310 8 0 38 5 66 12 43 10
61 22 112 74 33 35 73 81 87 103 15 22 70 82 123 133 59 58 100 106 107 126 6
19 25 50 42 70 17 19 38 51 46 70 15 36 105 126 153 152 37 21 85 62 92 81 10
25 -14 57 -77 104 -53 40 -138 77 -169 74 -6 0 -51 -11 -101 -25z m-474 -867
c-8 -8 -11 -5 -11 9 0 27 14 41 18 19 2 -9 -1 -22 -7 -28z"/>
<path d="M18561 2460 c-24 -11 -59 -20 -78 -20 -34 0 -45 -8 -109 -81 -33 -38
-133 -123 -165 -139 -16 -9 -63 -46 -104 -83 -41 -38 -110 -95 -154 -127 -95
-70 -141 -139 -165 -249 -23 -103 -21 -127 10 -148 14 -10 45 -37 69 -60 23
-24 47 -43 53 -43 6 0 29 -29 51 -65 34 -54 50 -69 98 -92 42 -20 63 -38 75
-62 24 -48 64 -87 115 -111 25 -12 56 -32 69 -45 45 -45 63 -50 200 -50 128 0
131 0 163 -28 22 -18 40 -26 50 -21 9 3 35 9 59 11 l42 6 0 566 0 567 -32 9
c-39 12 -78 79 -78 132 0 27 -11 44 -59 93 -33 33 -61 60 -63 60 -1 0 -23 -9
-47 -20z"/>
<path d="M3465 2043 c-22 -8 -49 -23 -60 -33 -12 -11 -48 -34 -81 -50 -32 -17
-70 -37 -84 -44 -14 -7 -46 -24 -72 -36 -27 -13 -76 -51 -111 -85 -49 -49 -75
-66 -121 -80 -32 -10 -85 -35 -117 -56 -32 -21 -72 -45 -89 -54 -18 -9 -59
-38 -92 -65 -46 -37 -72 -51 -107 -56 -25 -3 -66 -18 -91 -33 -25 -14 -52 -29
-61 -33 -10 -4 -24 -28 -33 -55 -13 -40 -25 -54 -69 -81 -28 -18 -67 -44 -86
-58 -19 -13 -46 -24 -60 -24 -20 0 -37 -13 -66 -50 -36 -46 -118 -100 -150
-100 -6 0 -70 -58 -143 -129 -84 -82 -142 -132 -160 -135 -30 -7 -138 -90
-186 -144 -16 -18 -50 -44 -75 -57 -25 -13 -91 -69 -146 -124 -65 -66 -111
-104 -132 -110 -38 -11 -139 -95 -159 -133 -7 -14 -30 -37 -51 -49 -21 -13
-49 -36 -61 -51 -15 -18 -44 -34 -80 -44 -59 -17 -72 -27 -72 -56 0 -17 59
-18 1110 -18 l1110 0 0 24 c0 27 67 167 85 178 23 14 133 127 156 160 12 18
34 42 47 53 13 11 45 47 70 80 25 33 60 74 79 91 18 17 48 52 66 77 47 66 147
143 206 157 33 8 55 20 70 40 11 16 42 42 68 57 85 49 167 113 209 162 68 82
82 220 33 329 -11 26 -27 80 -35 121 -8 40 -20 84 -27 96 -29 52 -105 161
-122 175 -10 8 -38 45 -61 82 -24 37 -59 78 -77 90 -19 12 -44 37 -57 55 -25
37 -48 40 -115 16z"/>
</g>
</svg>
